<?xml version="1.0" encoding="utf-8"?>
<!-- Generator: Adobe Illustrator 23.0.5, SVG Export Plug-In . SVG Version: 6.00 Build 0)  -->
<svg version="1.1" id="Layer_1" xmlns="http://www.w3.org/2000/svg" xmlns:xlink="http://www.w3.org/1999/xlink" x="0px" y="0px"
	 viewBox="0 0 1200.3 650.2" style="enable-background:new 0 0 1200.3 650.2;" xml:space="preserve">
<style type="text/css">
	.st0{fill:#0C0606;}
	.st1{fill:#FFFFFF;}
	.st2{font-family:'FMBolyarPro-900';}
	.st3{font-size:49.2447px;}
</style>
<rect x="3696.5" y="-2019.1" class="st0" width="799.8" height="769.7"/>
<rect x="2873.6" y="-2016.2" class="st0" width="793.4" height="756"/>
<rect x="26.5" y="-637.4" class="st0" width="1137.6" height="538.7"/>
<path d="M118.4-2013.3c0.2-0.9,0.5-1.7,0.8-2.6c9.2-28.2,12-56.8,6.7-86.1c-3.3-18.3-6.3-36.6-3.5-55.4c1.8-11.7,4.1-23.3,9.3-34
	c6.9-14.3,16.9-25.1,32.8-29.5c12.3-3.4,24.2-1.9,36,2c2.8,0.9,4.3,0.2,6.3-2c3.3-3.7,7-7.4,11.2-10c8.8-5.3,18.9-7.8,29.1-7.7
	c11.3,0,22.5,1.1,33.8,2.3c11.5,1.2,22.9,3,34.3,4.7c1.4,0.2,3.3,1.6,3.6,2.8c0.3,1.2-0.8,3.8-1.8,4.1c-2.7,0.9-5.8,1.5-8.6,1.1
	c-16.1-2.2-32-5.3-48.2-7c-18.6-2-35.8,1-48.7,16.6c-1.3,1.6-4.9,2-7.4,1.8c-3-0.2-6-1.6-9-2.3c-18.7-4.4-35.8-2.4-48.8,13.5
	c-14.8,18.1-20.2,39.6-19.7,62.2c0.4,15,3.8,29.9,5.5,44.8c1.1,9.4,2.5,18.9,1.9,28.3c-0.9,13.6-3.6,27-5.4,40.5
	c-0.1,1,0.3,2.1,0.5,3.2c1-0.4,2.4-0.5,3-1.2c2.9-3.9,6.4-7.7,8.3-12.1c6.4-15.1,9.5-31,8.1-47.6c-1.4-15.9-3.5-31.8-4.3-47.7
	c-1.1-20.3,3.1-39.6,14.1-57c6.3-9.9,14.5-18,24.6-24.1c1.2-0.7,3.2-0.1,4.8-0.1c-0.8,1.1-1.4,2.6-2.5,3.3
	c-21.2,15.5-32.9,36.5-35.5,62.4c-1.6,16.5,0.8,33,2.5,49.4c1.2,11.7,2.3,23.3-0.2,35c-0.6,2.9-0.8,5.9-1.3,9.2
	c0.7-0.3,0.9-0.3,0.9-0.4c0.2-0.5,0.3-1,0.5-1.5c9.7-23.1,13.1-46.8,7-71.6c-2.7-11-2.1-22.2,0.7-33.2c0.2-0.9,1.3-1.6,2-2.4
	c0.5,0.9,1.3,1.8,1.4,2.7c1.2,12.8,2.2,25.6,3.4,38.4c0.5,5.2,1.6,10.3,1.8,15.4c0.5,15.8-3.5,30.9-8.7,45.7
	c-0.6,1.7-0.7,3.5-1.1,5.2c0.4,0.1,0.7,0.2,1.1,0.4c1-1.2,2.1-2.2,2.9-3.5c8.9-14.8,13.9-31,15.3-48.2c0.8-9.9-1.9-19.3-4.9-28.6
	c-3.6-11.2-6.3-22.5-4.6-34.5c1.7-11.5,6.2-21.2,17-26.9c1.3-0.7,3.1-0.1,4.7-0.2c-0.7,1.4-1.1,3.3-2.3,4.1
	c-6.9,5.2-11.7,11.7-13.4,20.3c-2.4,11.9-0.5,23.4,3.7,34.4c7.1,18.6,7.3,37.2,1.1,56.1c-0.8,2.5-1.2,5.3-1.8,7.9
	c0.4,0.1,0.7,0.2,1.1,0.3c5.2-8.7,9.1-17.9,11.9-27.7c3.4-11.9,3.5-23.8-0.9-35.6c-1.8-4.7-3.1-9.6-4.3-14.6
	c-2.4-9.9-2.2-19.6,2.3-28.9c0.6-1.3,2.5-1.9,3.8-2.8c0,1.4,0.5,3.1-0.1,4.3c-3.5,7.3-3.8,17.2-0.6,24c1.1-5.1,1.5-10.5,3.4-15.4
	c2.6-7,6.2-13.6,9.6-20.3c0.5-1,2.8-1.2,4.2-1.8c0.2,1.5,0.9,3.2,0.6,4.6c-0.8,3.1-2.1,6.1-3.1,9.2c-2.9,8.9-5.8,17.8-5.2,27.4
	c1.4,19.2,7.3,36.8,18.2,52.7c4.2,6.2,8.2,12.7,11.8,19.3c3.3,6.1,3.9,12.7,1.5,19.5c-1,2.7-0.9,6.2-0.2,9.1
	c5.2,21.8,13.4,42.5,22.2,63.1c6.2,14.5,7.6,29.3,3.6,44.6c-0.9,3.5,0.1,5.8,2.7,8.2c2.6,2.4,5.1,5.3,6.6,8.5
	c3,6.3,7.6,9.6,14.4,9.4c4.3-0.1,5.6-2.4,3.4-6.1c-2.2-3.7-5.1-6.6-9.6-7.3c-3-0.5-3.3-2.1-2.7-4.8c0.5-2.2,0.7-4.5,0.4-6.7
	c-0.4-3.3-1.4-6.6-1.9-9.9c-2.1-14.1-4.2-28.3-6.2-42.4c-2.3-16.1-4.7-32.1-7-48.2c-1.1-7.7,1.5-13.9,8.2-18
	c11.6-7.1,17.1-18.1,19.7-30.9c2.7-13.1,5-26.3,8.2-39.2c1.1-4.4,4.4-8.4,7.1-12.2c0.6-0.8,3.8-0.9,4.5-0.2c1,1.1,1.8,4,1.1,4.9
	c-6.1,8-7.5,17.6-9.2,27c-0.9,5.2-0.7,5.2,4.4,4.6c11.8-1.5,23.3-0.1,34.6,3.4c2.8,0.8,5.2,2.7,4.1,6c-1.1,3.4-4.1,2.6-6.6,1.7
	c-8.5-3.3-17.4-4.1-26.4-3.9c-10.9,0.3-11.4,0.4-14.2,10.8c-3.9,14.6-9.6,28-23.5,36.2c-1.9,1.1-3.6,4.6-3.5,6.9
	c0.5,11.9,1.1,23.9,2.7,35.7c2.4,17.3,5.9,34.5,8.8,51.8c1.6,9.8,4.6,18.8,11.4,26.4c3,3.4,5,7.9,7,12.1c1.7,3.5,0.6,5.9-2.7,7.3
	c-9.6,4.1-21.3,1.2-28-5.8c-3.6-3.7-6.5-8.1-10.3-11.6c-4.5-4.2-6-9.4-4.6-14.8c3.1-12.9,2-25.2-2.9-37.4
	c-7.2-17.8-14.3-35.6-21.4-53.5c-4-10.1-5.5-20.5-2.9-31.3c1.2-5-0.2-9.4-3.4-13.3c-0.5,0.3-0.8,0.4-0.9,0.6
	c-0.3,0.4-0.5,0.9-0.6,1.4c-2.2,9.6-7.4,17.3-13.9,24.4c-5.2,5.8-8,12.6-8.7,20.4c-1.5,15.8-3.1,31.6-4.4,47.4
	c-0.8,9.3-1.6,18.7-1.6,28c0,7.3,1.2,14.3,7.5,19.7c3.5,3,5.5,7.4,5.7,12.4c0.2,5.3-1.1,7.2-6.7,7.1c-7-0.1-14-0.9-21-1.2
	c-4.5-0.2-7.5-2-8.6-6.6c-0.3-1.4-0.6-2.7-1-4.1c-1.6-5.4-2.8-11-4.9-16.2c-1.7-4.3-2.4-8.3-1-12.8c3.2-10.5,5.3-21.2,5-32.2
	c-0.4-13.9-1-27.8-1.7-41.7c-0.2-3.6-1.5-7.1-2.2-10.6c-0.4,0-0.8,0.1-1.2,0.1c-7.2,11.1-17.3,19.3-28,26.9c-3.7,2.7-7.9,4.2-13,4.3
	C118.3-2012,118.2-2012.7,118.4-2013.3z M184-1932.8c-2.6,0.2-4.3-1.2-2.6-3.8c1.8-2.5,1.3-5,1.2-7.7c-0.2-8.7-0.4-17.5,0.3-26.1
	c1.5-16.8,3.6-33.6,5.4-50.4c0.6-5.6,0.6-11.2,1.5-16.7c1.4-7.9,5.2-15.1,10.2-21.2c6.9-8.4,9.8-18.5,12.7-28.6
	c0.3-1.1,0.3-2.5-0.2-3.4c-4.3-8.1-8.6-16.2-12.7-23.8c-2.2,8.5-3.8,17.2-6.6,25.5c-4.7,13.8-12.5,26-22.6,36.5
	c-3.6,3.7-4.9,7.8-3.9,12.8c3.1,15.8,3.7,31.7,4.3,47.7c0.5,12.3-0.3,24.4-4.9,36c-0.8,2.1-0.3,5.2,0.7,7.3c3,6.5,6,12.9,6.1,20.3
	c0,1.2,1.7,3.3,2.9,3.4c5.5,0.7,11.1,1,16.7,1.3c0.7,0,1.4-0.6,2.4-1.2C192.5-1929.3,190-1933.3,184-1932.8z"/>
<path d="M1056.5-2236.1c-14.6,2-28.6,2-42.7-0.7c0,0.7,0,1.1,0.1,1.2c5.7,2.3,6.3,6.9,6.2,12.4c-0.3,19.6-0.1,39.3-0.1,59
	c0,1.4,0,2.8,0,4.3c-21.6-8.8-32.7-8.6-53.5,0.1c0-1.5,0-3,0-4.4c0-20.8,0-41.6-0.1-62.5c0-2.9,1-5,3.5-6.5c1.4-0.8,2.7-1.7,4.1-2.7
	c-15.1,0-30,0-45.7,0c9.6,2.1,8.8,9,8.8,16c-0.1,48.8-0.1,97.6,0,146.4c0,6.5,1,13.3-7.1,17.1c14.6-3.1,28.7-3.9,42.8,0.6
	c-0.1-0.9,0-1.3-0.1-1.4c-5.4-2.5-6.3-7-6.2-12.5c0.2-26.9,0-53.9,0-80.8c0-1.3,0-2.6,0-4.6c17.9,8.3,35.4,8.4,53.5-0.1
	c0,1.8,0,3.1,0,4.5c0,25.6-0.1,51.3,0.1,76.9c0.1,7.2-0.2,13.7-8.3,17.1c15-2.9,29.8-3.5,44.4,0.7c0-1,0.1-1.4,0-1.5
	c-5.7-2.7-6.7-7.3-6.7-13.2c0.2-50,0.1-100,0.1-149.9C1049.4-2226.5,1047.5-2233.5,1056.5-2236.1z"/>
<path d="M727.4-2151.4c-7.5,5.5-15.8,10.6-23,17c-12.9,11.5-20.6,26.7-27.6,42.1c-4.1,9.1-7.8,18.4-11.9,27.5
	c-1.6,3.6-4,6.9-6.7,11.3c4.7-0.5,8.9-0.6,12.9-1.6c21.8-5.5,36.4-19.3,44.9-39.7c4.9-11.7,9-23.8,14.3-35.4
	c3.9-8.7,9.2-16.8,13.7-24.8c-4.3-0.5-9.7-0.7-14.9-1.9c-13.8-3.1-22-13-23.4-27.1c-1.2-12.5,0.5-24.4,7.7-35
	c8.2-12.1,20.9-14,32.7-11.7c0.8,0.2,1.6,1.6,2,2.6c0.3,0.9,0.1,2.1,0.1,3.1c0,40.5,0,81,0,121.5c0,8.1,0.2,16.1,0.3,24.2
	c0.1,7.7-2.3,14.3-8.9,18.9c-0.4,0.3-0.8,0.7-1.1,1.1c-0.2,0.2-0.2,0.5-0.7,1.7c2-0.4,3.6-0.6,5-1c13.5-4.6,27-6.7,40.7-1.2
	c1.3,0.5,2.7,0.8,4.4,1.3c-0.2-1-0.2-1.3-0.3-1.4c-9.3-5.2-11.2-13.8-11.2-23.6c0.1-43.5,0.1-87,0-130.4c0-9.1,2-16.8,10.7-21.3
	c0.4-0.2,0.6-0.8,1.1-1.6c-1.3-0.1-2.2-0.5-2.9-0.2c-12.8,5.3-25.8,3.1-38.8,1.1c-10.5-1.6-20.9-4.4-31.6-1.3
	c-14.8,4.4-26.8,12.4-34.9,25.8c-9.9,16.3-6.2,35.6,9,47.2c10.9,8.3,23.7,11.4,37.1,12.8C726.6-2151.4,727.4-2151.4,727.4-2151.4z"
	/>
<path d="M829-2211.7c1-0.8,2-1.7,2.9-2.6c8.3-8.3,18.3-12.2,30-11.4c14.2,0.9,26.3,7,37,15.7c35,28.6,36.6,75.7,20.4,107
	c-16.9,32.7-56.3,45.7-88.8,29.2c-26.3-13.4-38.3-36.6-38.9-65.1c-0.6-26.6,9.5-50.2,25.8-71.1c2-2.5,4.7-4.5,7.3-6.4
	c1.1-0.8,2.7-1,4.4-1.6c-0.6,2.5-1.1,4.3-1.6,6.5C828.5-2211.6,828.9-2211.5,829-2211.7z M852.3-2137.7c-15.2-2-23.5-12-28.7-25.5
	c-0.6-1.5-1-2.9-1.5-4.4c0-0.1-0.2-0.2-1.1-1c-0.4,8.1-1,15.5-0.9,22.8c0.2,15.5,1.6,30.9,6.8,45.6c2.9,8.4,8.2,15.3,15.7,20.3
	c14,9.3,31.2,6.8,42.1-6c7.2-8.5,10.5-18.8,12.3-29.5c2.8-16.4,3.5-32.8,1-49.3c-2.5-16.4-7.2-32-19.1-44.3
	c-3.3-3.4-7.4-6.3-11.6-8.3c-8.9-4.2-17.5-2.5-24.5,4.1c-14.3,13.5-18.3,36.9,0.4,54c9,8.3,20.6,8.3,30.2,0.8
	c0.6-0.5,1.2-0.9,2.2-1.7C877.3-2146.9,866.7-2135.9,852.3-2137.7z"/>
<path d="M618.8-2112.8c3.2,0.8,6.3,1.1,9.2,2.2c14.7,5.5,19.4,23,9.3,35.8c-9.3,11.8-22,15.9-36.5,13.5
	c-14.3-2.3-24.1-10.4-28.7-24.3c-1.4-4.3-1.1-8.3,1.4-12.3c7.5-12.3,17.7-22.1,28-31.8c10.4-9.8,20.9-19.6,30.7-30
	c8.4-8.9,14.6-19.3,16.1-31.8c1.6-13.8-2.8-26-11-36.8c-5-6.5-12.5-9.3-20.4-10.3c-12.8-1.5-25.2,0.2-36.5,6.8
	c-2,1.2-3.8,3.4-4.9,5.6c-4.6,9.4-8.9,19-13.4,28.6c-0.5,1.1-1.1,2.2-1,3.9c1.5-1.4,3.1-2.9,4.5-4.4c6.7-6.9,13-14.3,20.3-20.5
	c5.1-4.3,11.5-7.7,17.8-10.1c11.7-4.6,21.2,2,22.4,14.7c0.8,8.2-2,14.7-7.8,20.3c-8.7,8.4-17.6,16.7-26.1,25.3
	c-13.2,13.3-25.7,27.3-33.5,44.7c-8.6,19-4.3,40.4,11.3,54c13.8,12.1,29.7,18.2,48.5,15.2c22.8-3.7,42.8-26.6,41.9-48.5
	c-0.7-18.3-19.3-28.7-34.7-19.4C622-2120.1,619.1-2117.3,618.8-2112.8z"/>
<path d="M355.8-2193.8c3-3,5.9-5.9,8.9-8.9c5.9-5.9,11.3-12.3,17.9-17.4c5.2-4,11.5-7,17.8-9.3c8.5-3.2,16.4,1.2,19.3,10.2
	c2.8,8.5,1.9,16.6-4.6,23.2c-11.1,11.3-22.7,22.2-33.8,33.5c-10.5,10.7-19.8,22.4-26.6,35.9c-10.9,21.9-5.5,45.4,14,60.1
	c11.4,8.7,24.2,13.4,38.8,12.7c21.5-1.1,43.3-19.5,47.1-40.7c0.8-4.8,0.5-10.3-0.7-15c-4.1-15.4-22.2-21.4-35-11.7
	c-2.5,1.9-4.1,5-6.5,8c4.2,1,7.3,1.4,10.2,2.4c14.6,5.2,19.6,22.4,9.9,35.4c-9.5,12.8-22.9,16.7-38.1,13.8
	c-14.7-2.8-24.4-11.8-27.9-26.5c-0.6-2.7,0.1-6.3,1.5-8.8c5.9-11,14.7-19.8,23.6-28.3c10.3-9.8,20.8-19.3,30.8-29.3
	c8.8-8.8,16.3-18.6,19.5-31c4.3-16.1-0.3-30.4-10.1-43.1c-4.7-6.2-11.9-8.9-19.4-9.8c-13.5-1.7-26.4,0.1-38.3,7.3
	c-1.3,0.8-2.6,1.9-3.2,3.2c-5.1,10.8-10.1,21.6-15.1,32.4c-0.2,0.4-0.3,0.9-0.4,1.3C355.5-2194,355.6-2193.9,355.8-2193.8z"/>
<path d="M459-2216.7c8.4,1.7,16.9,3.2,25.3,5.2c11.4,2.7,22.4,2.4,33.1-2.7c0.4-0.2,0.9-0.3,1.7-0.4c0,19.2,0,38.1,0,57.5
	c-1.9-1-3.5-2-5.2-2.8c-5.9-2.8-12.2-2.4-18.4-1.4c-7.6,1.3-15.2,3-22.8,4.6c4.7,7.3,15,11.1,24.6,8.8c5.9-1.4,11.8-3,17.7-4.5
	c1.2-0.3,2.5-0.5,4.1-0.8c0,24.1,0,47.9,0,72.1c-4-0.9-7.8-1.7-11.7-2.5c-11.2-2.4-22.2-1.4-33.1,1.9c-8.1,2.5-16.3,4.6-24.6,6.9
	c4.6,4,10.3,6.1,16.5,7c10.3,1.4,20.1-0.9,30.1-2.7c9.3-1.7,18.6-3.6,28-4.7c9.1-1.1,18,0.7,26.7,4.3c-0.4-0.5-0.8-1.2-1.3-1.6
	c-3.9-3.4-5.7-7.8-5.7-12.8c-0.1-42.3-0.1-84.6,0.1-126.9c0-2.4,2.5-4.8,4.1-7c0.8-1.1,2.2-1.7,2.8-2.1c-7.3,0.5-15.2,1.8-22.9,1.3
	c-9.8-0.6-19.5-2.9-29.2-4.3c-11.9-1.8-23.6-1.4-34.6,4.3c-1.4,0.7-2.7,1.6-4,2.4C459.7-2217.3,459.1-2216.8,459-2216.7z"/>
<path d="M862.7-2302.4c1.4-8.1,6.4-11.9,14.6-11.1c2.7,0.3,5.4,0.7,8,1.5c11.7,3.3,19.1,12.1,19.9,23.6c0.7,10.3-4.7,16.8-14.9,15.6
	c-8.8-1.1-17.3-4.1-25.6-6.2c0-3.7,0-6.5,0-9.7c1.5,0.9,2.5,1.7,3.7,2.3c6,3.5,12.3,6.6,19.4,6.1c2.5-0.2,5.1-1.6,7.1-3.2
	c1.4-1.1,1.7-3.1-1.3-3.8c-10.3-2.4-20.6-5-31.6-7.6C862.2-2297.3,862.2-2299.9,862.7-2302.4z M895.2-2293.4c0.3-0.2,0.7-0.5,1-0.7
	c-1.1-2.1-1.9-4.6-3.4-6.4c-3.6-4.2-8.5-5.9-13.9-5.9c-4.4-0.1-6.4,2.1-7.3,7.3C879.4-2297.2,887.3-2295.3,895.2-2293.4z"/>
<path d="M958-2306.7c-4.1-1-8-2-12-3c0,5.8,0,11.3,0,17.4c-1.1-0.9-1.9-1.5-2.6-2.1c-5.6-5.2-12.4-7.4-20-7.5
	c-5.3,0-8.6,2.8-9.2,8.1c-0.6,5.2-0.2,10.4-0.7,15.6c-0.3,3.3-1.1,6.6-1.8,10.3c3.9,1,8.6,2.1,13.7,3.4c-4.8-8.3-3.2-16.9-2.5-25.3
	c0.3-3.5,3-5,6.4-5c9.7,0.2,16.6,7.2,16.8,16.9c0,2.9,0.3,5.8-0.1,8.6c-0.4,3-1.3,5.8-2.1,9.2c3.9,1,8.7,2.2,13.8,3.4
	C953.4-2265.8,953.5-2300.4,958-2306.7z"/>
<path d="M1011.9-2293.9c-16.2-3.9-32.7-7.9-49-11.9c-0.8,3.2-1.5,6.4-2.1,8.8c7,0.8,14,1.6,21.5,2.4c0,3.1,0,5.5,0,7.9
	c0,8.8,0.2,17.7-0.1,26.5c-0.1,2.9-1.3,5.8-2.1,8.8c4.1,1,9.3,2.3,13.6,3.3c-0.5-4.5-1.2-8.9-1.3-13.4c-0.2-9.9-0.1-19.7-0.1-30.7
	c7.7,2.9,14.7,5.5,21.6,8.1C1013.4-2286.7,1012.7-2290,1011.9-2293.9z"/>
<path d="M136.4-2140.1c0.2-16.8,5.6-31.8,14.4-45.6c4.1-6.4,9.4-12,13.9-18.1c0.8-1.1,0.6-2.8,0.9-4.3c-1.5-0.1-3.5-0.9-4.4-0.3
	c-2.4,1.7-4.7,3.8-6.4,6.2c-10.8,14.5-19.4,30.1-22.8,48.1c-1.8,9.4-0.6,18.6,0.7,27.8c1.7,11.9,3,23.9,4.6,35.9
	c0.1,1.1,1.1,2,1.7,3c0.9-1,2.5-1.9,2.6-2.9c0.2-3.1,0-6.2-0.4-9.3C139.7-2113.1,138-2126.6,136.4-2140.1z"/>
<path d="M285.5-2202c-1.7,4.1-0.5,8.1,2.9,10.5C290.8-2195.2,289.5-2200,285.5-2202z"/>
<path d="M246-2084.3c1.6-2,3.3-3.2,3.3-4.4c0-1-2.1-2.8-3.2-2.7c-1.3,0.1-2.9,1.7-3.4,3C242.4-2087.7,244.3-2086.3,246-2084.3z"/>
<path d="M238.5-2078.8c2,1.4,3.3,3,4.4,2.9c1.1-0.1,2.7-2.2,2.6-3.3c-0.1-1.1-1.9-3.1-2.9-3.1
	C241.5-2082.2,240.3-2080.4,238.5-2078.8z"/>
<path d="M228.5-2091.5c2.2,1.4,3.6,2.8,4.4,2.6c1.2-0.4,2.1-2,3.1-3.1c-1-1-2.1-2.7-3.1-2.7C231.8-2094.7,230.6-2093.1,228.5-2091.5
	z"/>
<path d="M287.3-2182.3c-1.8-1.3-3.1-2.4-4.6-3.2c-0.3-0.1-1.9,1.5-1.8,1.6c1.2,1.7,2.5,3.3,3.8,4.8
	C285.4-2179.9,286-2180.7,287.3-2182.3z"/>
<path d="M248.3-2108.3c1.8,1.2,3.1,2.4,3.4,2.2c1.4-1,2.6-2.4,3.8-3.7c-0.7-0.7-1.8-2.1-2.1-2C251.9-2111,250.5-2109.9,248.3-2108.3
	z"/>
<path d="M989.7-1962.4c0-2.2,0-4.2,0-6.5c-186,0-371.8,0-557.9,0c0,2.1,0,4.1,0,6.5C617.7-1962.4,803.6-1962.4,989.7-1962.4z"/>
<path d="M431.7-2046.9c0,2.3,0,4.2,0,6.5c185.9,0,371.8,0,557.9,0c0-2,0-4.1,0-6.5C803.7-2046.9,617.9-2046.9,431.7-2046.9z"/>
<path d="M647.5-1979.6c4.9,0,9.5,0.1,14.2-0.1c0.6,0,1.4-0.8,1.9-1.4c9.1-11.7,18.2-23.4,27.7-35c-0.5,12.1,2,24.3-1.9,36.3
	c4.4,0,9.1,0,13.9,0c-3.5-6.6-3.4-37.9,0.1-43.6c-6.4,0-12.7,0-18.5,0c-9.1,12-18,23.7-27.1,35.7c-2.1-10.1-0.7-31.5,2.3-35.7
	c-4.9,0-9.6,0-13.5,0c0.4,4.2,1.1,8.5,1.2,12.8c0.2,8.3,0.1,16.6,0,25C647.9-1983.8,647.7-1982,647.5-1979.6z"/>
<path d="M569.7-2023c1,2.9,2,5.6,3,8.6c8.2-3.3,16.3-4.6,24.7-3.8c12,1.1,19,9.4,17.2,20.4c-1.1,6.6-5.9,11.3-13.7,12.3
	c-4.6,0.6-9.4,0.6-14-0.1c-8.1-1.2-10.2-4.7-8.9-13.6c6.5,0,13.1,0,19.6,0c-1.3-6-1.8-6.6-7.7-6.6c-7.6-0.1-15.3,0-22.6,0
	c0,8.2,0,16,0,23.6c7.7,1.2,14.9,2.3,22.2,3.4c7.5,1.1,14.8,0.2,21.9-2.3c10-3.5,14.7-10.4,14.6-20.6c-0.1-9.5-5.8-16.7-15.8-20.4
	c-9.5-3.4-19.2-2.6-28.9-2C577.5-2023.9,573.9-2023.4,569.7-2023z"/>
<path d="M859.3-2017.4c10.2,8.4,9.9,24.5-0.5,32.7c-5,3.9-10.9,5.5-17,6.1c-9.6,1-19,0-27.3-5.4c-13.8-9.1-12.8-28.8,1.8-36.6
	c5.9-3.1,12.2-4.1,18.3-3.8C844-2024.7,852.3-2023.2,859.3-2017.4z M854.3-1994.7c4.3-9.9-1.3-20.2-12.2-22.6
	c-2.6-0.6-5.4-0.8-8.1-0.7c-11,0.2-17.2,5.8-17.6,15.6c-0.4,9.5,6.1,16.3,16.7,17.2c1.2,0.1,2.3,0,3.5,0
	C844.1-1985.3,850.9-1987,854.3-1994.7z"/>
<path d="M530.8-1999.5c0,4.6,0,8.8,0,13.6c-14.3-0.9-28.6,2.1-42.9-3.4c1,3.2,2,6.1,3.1,9.5c17.3,0,35.1,0,52.9,0
	c-3.5-7-3.3-37.9,0.3-43.5c-17.6,0-35.1,0-52.2,0c-0.8,2.9-1.6,5.6-2.5,8.7c13.6-4.4,27.3-2.2,41.1-2.9c0,4,0,7.7,0,11.7
	c-10.2,0-20.5,0-30.9,0c1.9,4,4.3,6.8,9.6,6.4C516.3-1999.8,523.3-1999.5,530.8-1999.5z"/>
<path d="M740.7-2023.4c-4.4,0-9.5,0-13.8,0c0.6,3.4,1.4,6.8,1.6,10.3c0.3,5.1,0.1,10.1,0.1,15.2c0,10.6,4.1,15.8,14.4,18.2
	c8.6,2,17.3,1.9,25.8-0.6c8.1-2.5,11.9-7.7,11.9-16.1c0-5.6-0.2-11.2,0.1-16.8c0.2-3.5,1.2-6.9,1.8-10.3c-4.3,0-9.5,0-15.3,0
	c3.6,3.9,3.1,8.4,3.1,12.8c0,3.9,0,7.8,0,11.7c0,8.7-3.4,12.7-12.1,13.6c-2.4,0.3-5,0.3-7.4,0c-8.6-0.9-11.8-4.6-11.8-13.2
	c0-5.2-0.2-10.4,0.1-15.6C739.3-2017.3,740.2-2020.3,740.7-2023.4z"/>
<path d="M931.9-2023.4c-4.2,0-9.3,0-13.6,0c0.5,4,1.3,8,1.4,12.1c0.2,8.3,0.1,16.6,0.1,25.4c-12.4-0.6-24.6,1.8-36.7-3.6
	c1.2,3.5,2.2,6.4,3.3,9.7c15.1,0,30.6,0,45.3,0C929.7-1994.5,929.3-2008.9,931.9-2023.4z"/>
<path d="M244.8-2098.8c1.5,0.6,2.9,1.5,3.4,1.2c0.9-0.6,1.7-2,1.9-3.1c0.1-0.7-1-1.6-1.6-2.4
	C247.7-2102.2,246.9-2101.3,244.8-2098.8z"/>
<path d="M253.6-2086c1.4,1,2.3,2.2,3.3,2.2c0.6,0,2-1.6,1.9-2.2c-0.2-0.9-1.3-2.1-2.3-2.4C255.9-2088.5,254.9-2087.1,253.6-2086z"/>
<path d="M252.5-2094.9c1,0.5,2.2,1.4,3.1,1.2c0.9-0.2,2.1-1.4,2.3-2.3c0.2-0.7-1.1-2.4-1.7-2.3c-1,0.1-1.9,1.1-2.9,1.7
	C253.1-2096,252.8-2095.4,252.5-2094.9z"/>
<path d="M287.9-2185.7c0.3,2.1,1.3,3.5,3.8,2.9c0.6-0.1,0.9-1.3,1.3-1.9c-1.4-0.8-2.8-1.6-4.3-2.4
	C288.5-2186.6,288.2-2186.2,287.9-2185.7z"/>
<g>
	<text transform="matrix(-0.7378 0 0 1 931.8813 -1912.4109)" class="st0 st2" style="font-size:40.2815px;">SCHENECTADY, NY </text>
</g>
<path class="st1" d="M199.9-278c0.2-0.8,0.4-1.5,0.7-2.2c7.9-24.1,10.3-48.5,5.7-73.6c-2.9-15.6-5.4-31.3-3-47.3
	c1.5-10,3.5-19.9,7.9-29.1c5.9-12.2,14.4-21.5,28-25.3c10.5-2.9,20.7-1.7,30.8,1.7c2.4,0.8,3.7,0.2,5.4-1.7c2.9-3.2,6-6.4,9.6-8.5
	c7.6-4.5,16.1-6.6,24.8-6.6c9.6,0,19.3,1,28.9,2c9.8,1,19.6,2.5,29.3,4c1.2,0.2,2.8,1.4,3.1,2.4c0.3,1-0.6,3.2-1.5,3.5
	c-2.3,0.8-5,1.3-7.3,1c-13.7-1.9-27.4-4.5-41.2-6c-15.9-1.7-30.6,0.8-41.7,14.2c-1.1,1.4-4.2,1.7-6.3,1.6c-2.6-0.1-5.1-1.4-7.7-2
	c-16-3.8-30.6-2.1-41.7,11.5c-12.6,15.5-17.3,33.8-16.8,53.2c0.3,12.8,3.3,25.5,4.7,38.3c0.9,8,2.1,16.2,1.6,24.2
	c-0.8,11.6-3.1,23.1-4.7,34.6c-0.1,0.9,0.3,1.8,0.4,2.7c0.9-0.3,2.1-0.4,2.5-1.1c2.5-3.4,5.5-6.6,7.1-10.3
	c5.5-12.9,8.1-26.5,6.9-40.6c-1.2-13.6-3-27.2-3.7-40.8c-0.9-17.3,2.6-33.8,12.1-48.7c5.4-8.5,12.4-15.4,21-20.6
	c1-0.6,2.7-0.1,4.1-0.1c-0.7,1-1.2,2.2-2.1,2.9c-18.1,13.2-28.1,31.2-30.3,53.3c-1.4,14.1,0.7,28.2,2.1,42.2c1,10,2,19.9-0.1,29.9
	c-0.5,2.5-0.7,5.1-1.1,7.9c0.6-0.3,0.7-0.3,0.8-0.4c0.2-0.4,0.3-0.8,0.4-1.2c8.3-19.8,11.2-40,6-61.2c-2.3-9.4-1.8-19,0.6-28.4
	c0.2-0.8,1.1-1.4,1.7-2.1c0.4,0.8,1.1,1.5,1.2,2.3c1,10.9,1.9,21.9,2.9,32.8c0.4,4.4,1.4,8.8,1.5,13.2c0.5,13.5-3,26.4-7.4,39
	c-0.5,1.4-0.6,3-0.9,4.4c0.3,0.1,0.6,0.2,0.9,0.3c0.8-1,1.8-1.9,2.5-3c7.6-12.7,11.8-26.5,13-41.2c0.7-8.5-1.6-16.5-4.2-24.5
	c-3-9.6-5.4-19.3-3.9-29.5c1.4-9.8,5.3-18.1,14.5-23c1.1-0.6,2.7-0.1,4.1-0.1c-0.6,1.2-0.9,2.8-1.9,3.5c-5.9,4.5-10,10-11.5,17.4
	c-2,10.1-0.4,20,3.2,29.4c6.1,15.9,6.3,31.8,1,47.9c-0.7,2.2-1,4.5-1.5,6.7c0.3,0.1,0.6,0.2,0.9,0.2c4.4-7.4,7.8-15.3,10.2-23.6
	c2.9-10.2,3-20.3-0.8-30.4c-1.5-4-2.7-8.2-3.7-12.4c-2.1-8.4-1.8-16.8,2-24.7c0.5-1.1,2.2-1.6,3.3-2.4c0,1.2,0.4,2.7-0.1,3.7
	c-3,6.2-3.2,14.7-0.5,20.5c0.9-4.3,1.3-9,2.9-13.2c2.3-6,5.3-11.7,8.2-17.3c0.5-0.9,2.4-1,3.6-1.5c0.2,1.3,0.8,2.7,0.5,3.9
	c-0.7,2.7-1.8,5.2-2.7,7.9c-2.5,7.6-5,15.3-4.4,23.4c1.2,16.4,6.3,31.4,15.6,45.1c3.6,5.3,7,10.8,10.1,16.5
	c2.8,5.2,3.4,10.8,1.3,16.7c-0.8,2.3-0.8,5.3-0.2,7.8c4.4,18.6,11.5,36.4,19,53.9c5.3,12.4,6.5,25.1,3.1,38.1c-0.8,3,0.1,5,2.3,7
	c2.2,2.1,4.3,4.5,5.7,7.2c2.6,5.4,6.5,8.2,12.3,8c3.6-0.1,4.8-2.1,2.9-5.2c-1.9-3.2-4.4-5.7-8.2-6.2c-2.6-0.4-2.9-1.8-2.3-4.1
	c0.4-1.8,0.6-3.9,0.4-5.7c-0.3-2.9-1.2-5.6-1.6-8.5c-1.8-12.1-3.6-24.2-5.3-36.2c-2-13.7-4-27.4-6-41.2c-0.9-6.6,1.3-11.9,7-15.4
	c9.9-6.1,14.6-15.5,16.9-26.4c2.3-11.2,4.2-22.5,7-33.5c0.9-3.8,3.7-7.1,6.1-10.4c0.5-0.7,3.3-0.8,3.9-0.2c0.9,0.9,1.5,3.4,0.9,4.2
	c-5.2,6.9-6.4,15-7.8,23.1c-0.8,4.4-0.6,4.5,3.8,3.9c10.1-1.3,19.9-0.1,29.6,2.9c2.4,0.7,4.5,2.3,3.5,5.1c-1,2.9-3.5,2.2-5.6,1.4
	c-7.3-2.8-14.8-3.5-22.6-3.3c-9.3,0.2-9.7,0.4-12.1,9.2c-3.4,12.5-8.2,23.9-20.1,31c-1.6,1-3.1,3.9-3,5.9
	c0.4,10.2,0.9,20.4,2.3,30.5c2.1,14.8,5,29.5,7.5,44.3c1.4,8.3,3.9,16,9.8,22.6c2.6,2.9,4.3,6.7,6,10.3c1.4,3,0.5,5.1-2.3,6.3
	c-8.2,3.5-18.2,1-23.9-4.9c-3.1-3.2-5.6-6.9-8.8-9.9c-3.9-3.6-5.1-8-4-12.6c2.7-11,1.7-21.5-2.5-32c-6.2-15.2-12.2-30.5-18.3-45.7
	c-3.4-8.6-4.7-17.5-2.5-26.7c1-4.3-0.2-8-2.9-11.4c-0.4,0.3-0.7,0.3-0.8,0.5c-0.2,0.4-0.4,0.8-0.5,1.2c-1.9,8.2-6.4,14.8-11.9,20.9
	c-4.5,4.9-6.9,10.8-7.5,17.4c-1.2,13.5-2.6,27-3.8,40.5c-0.7,8-1.4,16-1.4,24c0,6.2,1,12.2,6.4,16.8c3,2.6,4.7,6.4,4.9,10.6
	c0.2,4.6-1,6.2-5.7,6.1c-6-0.1-12-0.8-17.9-1.1c-3.9-0.2-6.5-1.7-7.4-5.6c-0.3-1.2-0.5-2.3-0.9-3.5c-1.3-4.6-2.4-9.4-4.2-13.9
	c-1.5-3.7-2-7.1-0.9-11c2.7-9,4.5-18.1,4.2-27.5c-0.4-11.9-0.8-23.8-1.5-35.7c-0.2-3-1.3-6-1.9-9.1c-0.3,0-0.7,0.1-1,0.1
	c-6.2,9.5-14.8,16.5-23.9,23c-3.2,2.3-6.7,3.6-11.1,3.7C199.9-276.9,199.8-277.5,199.9-278z M256-209.2c-2.3,0.2-3.7-1-2.2-3.2
	c1.5-2.2,1.1-4.2,1-6.6c-0.2-7.4-0.4-14.9,0.3-22.3c1.2-14.4,3.1-28.7,4.6-43.1c0.5-4.7,0.5-9.6,1.3-14.3c1.2-6.8,4.4-12.9,8.7-18.1
	c5.9-7.2,8.4-15.8,10.9-24.4c0.3-0.9,0.3-2.1-0.1-2.9c-3.6-6.9-7.4-13.8-10.9-20.3c-1.8,7.2-3.3,14.7-5.7,21.8
	c-4,11.8-10.7,22.2-19.3,31.2c-3.1,3.2-4.2,6.7-3.4,10.9c2.7,13.5,3.1,27.1,3.7,40.8c0.4,10.5-0.3,20.8-4.2,30.8
	c-0.7,1.8-0.2,4.5,0.6,6.3c2.6,5.6,5.2,11,5.2,17.4c0,1,1.5,2.8,2.5,2.9c4.7,0.6,9.5,0.9,14.2,1.1c0.6,0,1.2-0.5,2.1-1
	C263.3-206.3,261.2-209.7,256-209.2z"/>
<path class="st1" d="M3860.6-1501.9c0.4-2,1.1-3.8,1.7-5.7c20.4-62.3,26.6-125.7,14.8-190.6c-7.4-40.5-13.9-81.1-7.7-122.6
	c3.9-26,9.1-51.5,20.6-75.4c15.3-31.6,37.4-55.7,72.5-65.4c27.1-7.5,53.6-4.3,79.7,4.5c6.1,2.1,9.6,0.5,13.9-4.4
	c7.4-8.2,15.4-16.5,24.8-22.1c19.6-11.7,41.8-17.2,64.3-17.1c24.9,0.1,49.9,2.5,74.7,5.1c25.4,2.6,50.7,6.5,75.9,10.4
	c3.1,0.5,7.3,3.5,8.1,6.2c0.7,2.6-1.7,8.3-3.9,9.1c-6,1.9-12.8,3.4-19,2.5c-35.6-4.9-70.9-11.7-106.6-15.6
	c-41.1-4.5-79.3,2.1-107.8,36.8c-2.9,3.6-10.9,4.4-16.3,4.1c-6.7-0.4-13.3-3.5-20-5.1c-41.5-9.8-79.3-5.4-108.1,29.9
	c-32.6,40-44.8,87.6-43.6,137.7c0.8,33.1,8.5,66.1,12.2,99.2c2.4,20.8,5.5,41.9,4.1,62.6c-2,30-8,59.8-12.1,89.7
	c-0.3,2.2,0.7,4.7,1.1,7c2.2-0.9,5.4-1.1,6.6-2.7c6.5-8.7,14.3-17,18.4-26.8c14.2-33.5,21-68.7,17.9-105.3
	c-3-35.2-7.7-70.4-9.5-105.7c-2.3-44.9,6.8-87.6,31.3-126.1c14-22,32.1-39.9,54.4-53.3c2.7-1.6,7.1-0.3,10.7-0.3
	c-1.8,2.5-3.1,5.7-5.4,7.4c-47,34.2-72.8,80.8-78.5,138.1c-3.6,36.5,1.8,73,5.4,109.4c2.5,25.8,5.1,51.6-0.4,77.4
	c-1.4,6.5-1.8,13.2-2.8,20.5c1.5-0.7,1.9-0.8,2-0.9c0.4-1.1,0.7-2.2,1.1-3.2c21.6-51.2,29-103.7,15.5-158.5
	c-6-24.4-4.6-49.2,1.6-73.6c0.5-2,2.9-3.6,4.4-5.3c1,2,2.8,3.9,3,6c2.6,28.3,4.9,56.7,7.5,85c1.1,11.4,3.6,22.8,4,34.2
	c1.2,35.1-7.8,68.3-19.2,101.1c-1.3,3.7-1.7,7.7-2.5,11.5c0.8,0.3,1.6,0.5,2.4,0.8c2.2-2.5,4.7-4.9,6.4-7.7
	c19.7-32.9,30.7-68.6,33.8-106.7c1.8-21.9-4.2-42.7-10.8-63.3c-7.9-24.8-14-49.9-10.1-76.3c3.8-25.4,13.7-47,37.6-59.5
	c2.8-1.5,7-0.3,10.5-0.3c-1.6,3.1-2.5,7.3-5,9.2c-15.3,11.5-25.9,26-29.7,45c-5.2,26.3-1,51.7,8.3,76.2
	c15.7,41.2,16.2,82.4,2.5,124.1c-1.9,5.6-2.7,11.6-4,17.5c0.8,0.2,1.6,0.4,2.4,0.6c11.5-19.2,20.2-39.6,26.4-61.2
	c7.6-26.4,7.7-52.6-2.1-78.7c-3.9-10.5-6.9-21.3-9.5-32.2c-5.3-21.8-4.8-43.4,5.1-64c1.3-2.8,5.6-4.2,8.5-6.2c0,3.2,1,6.9-0.2,9.5
	c-7.7,16.1-8.3,38.1-1.3,53.2c2.3-11.2,3.4-23.2,7.5-34.1c5.8-15.4,13.7-30.2,21.3-44.8c1.2-2.3,6.1-2.6,9.3-3.9
	c0.5,3.4,2,7,1.3,10.1c-1.7,6.9-4.7,13.6-6.9,20.4c-6.4,19.7-12.9,39.5-11.4,60.6c3,42.5,16.2,81.4,40.3,116.7
	c9.4,13.7,18.1,28,26,42.6c7.3,13.6,8.7,28,3.3,43.2c-2.1,6.1-2,13.8-0.5,20.2c11.5,48.2,29.7,94.2,49.2,139.6
	c13.8,32.1,16.8,64.9,7.9,98.6c-2,7.7,0.2,12.9,6,18.2c5.8,5.3,11.3,11.7,14.7,18.7c6.7,13.9,16.8,21.2,32,20.8
	c9.4-0.3,12.4-5.3,7.5-13.5c-4.9-8.2-11.3-14.6-21.3-16.1c-6.7-1-7.4-4.6-6-10.5c1.2-4.8,1.5-10,0.9-14.8c-0.9-7.4-3.1-14.6-4.3-22
	c-4.7-31.3-9.2-62.5-13.8-93.8c-5.2-35.5-10.4-71.1-15.4-106.6c-2.4-17,3.3-30.8,18.1-39.9c25.7-15.8,37.9-40,43.7-68.4
	c5.9-29,11-58.2,18.2-86.8c2.4-9.8,9.7-18.5,15.7-27c1.3-1.8,8.4-2.1,10-0.4c2.3,2.4,3.9,8.8,2.3,10.9
	c-13.5,17.8-16.5,38.9-20.3,59.8c-2.1,11.4-1.5,11.6,9.8,10.2c26-3.3,51.6-0.2,76.7,7.5c6.1,1.9,11.5,6,9.1,13.3
	c-2.5,7.6-9.1,5.8-14.6,3.7c-18.9-7.3-38.4-9.1-58.5-8.6c-24.1,0.6-25.2,0.9-31.4,23.9c-8.7,32.4-21.3,61.9-52.1,80.2
	c-4.2,2.5-7.9,10.1-7.7,15.2c1.2,26.4,2.4,52.9,6,79.1c5.4,38.4,13,76.5,19.4,114.7c3.6,21.6,10.2,41.5,25.3,58.5
	c6.7,7.5,11.1,17.4,15.5,26.7c3.7,7.8,1.3,13.1-6,16.2c-21.2,9-47.2,2.6-61.9-12.7c-7.9-8.3-14.5-18-22.8-25.7
	c-10-9.3-13.2-20.8-10.3-32.7c6.9-28.6,4.4-55.8-6.5-82.7c-16-39.4-31.7-78.9-47.3-118.4c-8.9-22.4-12.2-45.4-6.5-69.2
	c2.6-11.1-0.5-20.8-7.4-29.5c-1.1,0.7-1.8,0.8-2,1.3c-0.6,1-1.1,2-1.4,3.1c-4.8,21.2-16.5,38.3-30.8,54.1
	c-11.6,12.7-17.8,28-19.4,45.2c-3.2,35-6.8,69.9-9.8,104.8c-1.8,20.6-3.5,41.3-3.6,62c-0.1,16.2,2.7,31.7,16.6,43.6
	c7.8,6.7,12.2,16.4,12.7,27.5c0.5,11.8-2.5,16-14.8,15.8c-15.5-0.3-30.9-2.1-46.4-2.7c-10-0.4-16.7-4.4-19.1-14.5
	c-0.7-3-1.4-6.1-2.3-9.1c-3.5-12-6.2-24.3-10.8-35.9c-3.8-9.5-5.2-18.5-2.2-28.4c7.1-23.2,11.8-46.9,11-71.3
	c-1-30.8-2.1-61.6-3.8-92.4c-0.4-7.9-3.3-15.6-5-23.5c-0.9,0.1-1.8,0.2-2.6,0.2c-16,24.7-38.4,42.8-62,59.5
	c-8.3,5.9-17.4,9.4-28.7,9.5C3860.5-1499.1,3860.3-1500.6,3860.6-1501.9z M4005.8-1323.7c-5.9,0.5-9.6-2.7-5.7-8.4
	c3.9-5.6,2.8-11,2.7-17c-0.4-19.3-1-38.7,0.7-57.9c3.2-37.2,8-74.3,11.9-111.5c1.3-12.3,1.2-24.8,3.4-36.9
	c3.2-17.5,11.5-33.3,22.6-47c15.3-18.7,21.7-40.9,28.1-63.3c0.7-2.3,0.7-5.5-0.3-7.6c-9.4-18-19.1-35.8-28.2-52.6
	c-4.8,18.7-8.4,38.1-14.7,56.6c-10.4,30.6-27.6,57.5-50,80.8c-8,8.3-10.9,17.4-8.7,28.3c6.9,34.9,8.1,70.2,9.6,105.6
	c1.1,27.3-0.8,53.9-10.8,79.7c-1.8,4.6-0.6,11.5,1.6,16.3c6.7,14.4,13.4,28.6,13.5,45c0,2.7,3.9,7.3,6.4,7.6
	c12.2,1.6,24.6,2.2,36.9,2.9c1.5,0.1,3-1.4,5.4-2.6C4024.6-1316.1,4019.1-1324.9,4005.8-1323.7z"/>
<path class="st1" d="M3523.1-1496.2c-11.3-0.1-20.4-3.6-28.7-9.5c-23.6-16.7-45.9-34.8-62-59.5c-0.9-0.1-1.8-0.2-2.6-0.2
	c-1.7,7.8-4.5,15.6-5,23.5c-1.7,30.8-2.9,61.6-3.8,92.4c-0.8,24.4,3.9,48.1,11,71.3c3,9.9,1.6,18.8-2.2,28.4
	c-4.6,11.6-7.3,23.9-10.8,35.9c-0.9,3-1.5,6-2.3,9.1c-2.4,10.1-9.1,14.1-19.1,14.5c-15.5,0.7-30.9,2.4-46.4,2.7
	c-12.4,0.2-15.3-4-14.8-15.8c0.5-11.1,5-20.9,12.7-27.5c13.9-11.9,16.7-27.4,16.6-43.6c-0.1-20.7-1.9-41.4-3.6-62
	c-3-35-6.6-69.9-9.8-104.8c-1.6-17.2-7.8-32.4-19.4-45.2c-14.3-15.8-26-33-30.8-54.1c-0.2-1.1-0.8-2.1-1.4-3.1
	c-0.2-0.4-0.9-0.6-2-1.3c-6.9,8.8-10.1,18.4-7.4,29.5c5.7,23.8,2.4,46.8-6.5,69.2c-15.6,39.5-31.4,79-47.3,118.4
	c-10.9,27-13.5,54.2-6.5,82.7c2.9,11.9-0.3,23.4-10.3,32.7c-8.4,7.7-14.9,17.4-22.8,25.7c-14.7,15.3-40.7,21.7-61.9,12.7
	c-7.3-3.1-9.7-8.4-6-16.2c4.4-9.3,8.8-19.2,15.5-26.7c15.1-16.9,21.6-36.9,25.3-58.5c6.4-38.2,14-76.3,19.4-114.7
	c3.7-26.1,4.9-52.7,6-79.1c0.2-5.1-3.5-12.7-7.7-15.2c-30.8-18.3-43.4-47.8-52.1-80.2c-6.2-23-7.3-23.3-31.4-23.9
	c-20.1-0.5-39.6,1.3-58.5,8.6c-5.5,2.1-12.1,3.9-14.6-3.7c-2.4-7.3,3.1-11.4,9.1-13.3c25-7.6,50.6-10.7,76.7-7.5
	c11.3,1.4,11.9,1.3,9.8-10.2c-3.8-20.9-6.8-42-20.3-59.8c-1.6-2.1,0.1-8.5,2.3-10.9c1.6-1.7,8.8-1.4,10,0.4c6,8.5,13.3,17.3,15.7,27
	c7.2,28.7,12.2,57.9,18.2,86.8c5.8,28.4,18,52.6,43.7,68.4c14.8,9.1,20.5,22.9,18.1,39.9c-5,35.6-10.2,71.1-15.4,106.6
	c-4.6,31.3-9.1,62.6-13.8,93.8c-1.1,7.4-3.4,14.6-4.3,22c-0.6,4.9-0.2,10.1,0.9,14.8c1.4,5.9,0.8,9.5-6,10.5
	c-9.9,1.5-16.4,8-21.3,16.1c-4.9,8.2-1.9,13.3,7.5,13.5c15.2,0.4,25.2-6.9,32-20.8c3.4-7,8.9-13.4,14.7-18.7c5.8-5.4,8-10.5,6-18.2
	c-8.8-33.8-5.8-66.5,7.9-98.6c19.5-45.4,37.7-91.4,49.2-139.6c1.5-6.4,1.6-14.1-0.5-20.2c-5.3-15.2-4-29.7,3.3-43.2
	c7.9-14.6,16.6-28.9,26-42.6c24.2-35.3,37.3-74.2,40.3-116.7c1.5-21.1-5-40.9-11.4-60.6c-2.2-6.8-5.2-13.4-6.9-20.4
	c-0.8-3.1,0.8-6.7,1.3-10.1c3.2,1.2,8.1,1.6,9.3,3.9c7.7,14.7,15.5,29.4,21.3,44.8c4.1,10.8,5.1,22.8,7.5,34.1
	c7.1-15,6.4-37-1.3-53.2c-1.2-2.6-0.2-6.3-0.2-9.5c2.9,2,7.2,3.4,8.5,6.2c9.9,20.6,10.4,42.2,5.1,64c-2.7,10.9-5.6,21.8-9.5,32.2
	c-9.8,26.1-9.7,52.2-2.1,78.7c6.2,21.6,14.9,42,26.4,61.2c0.8-0.2,1.6-0.4,2.4-0.6c-1.3-5.8-2.1-11.8-4-17.5
	c-13.8-41.7-13.2-82.9,2.5-124.1c9.3-24.5,13.5-49.9,8.3-76.2c-3.8-19-14.4-33.5-29.7-45c-2.5-1.9-3.4-6.1-5-9.2
	c3.5,0.1,7.7-1.1,10.5,0.3c23.9,12.5,33.8,34.1,37.6,59.5c3.9,26.4-2.2,51.5-10.1,76.3c-6.6,20.6-12.6,41.4-10.8,63.3
	c3.1,38.1,14,73.8,33.8,106.7c1.7,2.8,4.3,5.1,6.4,7.7c0.8-0.3,1.6-0.5,2.4-0.8c-0.8-3.8-1.2-7.8-2.5-11.5
	c-11.4-32.8-20.4-66-19.2-101.1c0.4-11.4,2.9-22.8,4-34.2c2.6-28.3,4.9-56.7,7.5-85c0.2-2.1,2-4,3-6c1.5,1.8,3.9,3.3,4.4,5.3
	c6.2,24.4,7.6,49.2,1.6,73.6c-13.5,54.8-6,107.2,15.5,158.5c0.4,1,0.7,2.2,1.1,3.2c0.1,0.2,0.5,0.2,2,0.9c-1-7.3-1.4-14-2.8-20.5
	c-5.4-25.8-2.9-51.6-0.4-77.4c3.6-36.4,9.1-72.8,5.4-109.4c-5.7-57.3-31.6-103.9-78.5-138.1c-2.4-1.7-3.6-4.9-5.4-7.4
	c3.6,0,8-1.3,10.7,0.3c22.4,13.4,40.5,31.3,54.4,53.3c24.5,38.5,33.6,81.2,31.3,126.1c-1.8,35.3-6.5,70.4-9.5,105.7
	c-3.1,36.6,3.7,71.7,17.9,105.3c4.1,9.8,11.9,18.1,18.4,26.8c1.2,1.6,4.3,1.9,6.6,2.7c0.4-2.3,1.4-4.8,1.1-7
	c-4.1-29.9-10-59.6-12.1-89.7c-1.4-20.7,1.8-41.8,4.1-62.6c3.8-33.1,11.4-66.1,12.2-99.2c1.2-50.1-10.9-97.7-43.6-137.7
	c-28.8-35.3-66.6-39.6-108.1-29.9c-6.7,1.6-13.2,4.7-20,5.1c-5.5,0.3-13.4-0.5-16.3-4.1c-28.5-34.7-66.7-41.3-107.8-36.8
	c-35.7,3.9-71,10.7-106.6,15.6c-6.2,0.8-13-0.6-19-2.5c-2.2-0.7-4.6-6.5-3.9-9.1c0.8-2.7,5-5.7,8.1-6.2c25.3-3.8,50.5-7.7,75.9-10.4
	c24.8-2.6,49.8-5,74.7-5.1c22.6-0.1,44.8,5.4,64.3,17.1c9.4,5.6,17.4,13.9,24.8,22.1c4.4,4.9,7.8,6.4,13.9,4.4
	c26.1-8.8,52.5-12,79.7-4.5c35.2,9.7,57.3,33.8,72.5,65.4c11.5,23.8,16.7,49.4,20.6,75.4c6.2,41.4-0.3,82.1-7.7,122.6
	c-11.8,64.9-5.7,128.2,14.8,190.6c0.6,1.9,1.3,3.8,1.7,5.7C3523.4-1500.6,3523.1-1499.1,3523.1-1496.2z M3353.4-1305.6
	c2.4,1.2,3.9,2.6,5.4,2.6c12.3-0.7,24.7-1.3,36.9-2.9c2.5-0.3,6.4-4.9,6.4-7.6c0.1-16.4,6.8-30.6,13.5-45c2.2-4.7,3.4-11.7,1.6-16.3
	c-10-25.8-11.9-52.4-10.8-79.7c1.5-35.4,2.7-70.7,9.6-105.6c2.2-10.9-0.7-20-8.7-28.3c-22.4-23.3-39.6-50.2-50-80.8
	c-6.3-18.5-9.9-37.8-14.7-56.6c-9.1,16.8-18.8,34.6-28.2,52.6c-1.1,2-1,5.2-0.3,7.6c6.4,22.4,12.8,44.6,28.1,63.3
	c11.2,13.7,19.4,29.4,22.6,47c2.2,12.1,2.1,24.6,3.4,36.9c4,37.2,8.7,74.3,11.9,111.5c1.7,19.2,1.1,38.6,0.7,57.9
	c-0.1,6.1-1.2,11.4,2.7,17c3.9,5.7,0.2,8.9-5.7,8.4C3364.5-1324.9,3359.1-1316.1,3353.4-1305.6z"/>
<path class="st0" d="M2207-1501.9c0.4-2,1.1-3.8,1.7-5.7c20.4-62.3,26.6-125.7,14.8-190.6c-7.4-40.5-13.9-81.1-7.7-122.6
	c3.9-26,9.1-51.5,20.6-75.4c15.3-31.6,37.4-55.7,72.5-65.4c27.1-7.5,53.6-4.3,79.7,4.5c6.1,2.1,9.6,0.5,13.9-4.4
	c7.4-8.2,15.4-16.5,24.8-22.1c19.6-11.7,41.8-17.2,64.3-17.1c24.9,0.1,49.9,2.5,74.7,5.1c25.4,2.6,50.7,6.5,75.9,10.4
	c3.1,0.5,7.3,3.5,8.1,6.2c0.7,2.6-1.7,8.3-3.9,9.1c-6,1.9-12.8,3.4-19,2.5c-35.6-4.9-70.9-11.7-106.6-15.6
	c-41.1-4.5-79.3,2.1-107.8,36.8c-2.9,3.6-10.9,4.4-16.3,4.1c-6.7-0.4-13.3-3.5-20-5.1c-41.5-9.8-79.3-5.4-108.1,29.9
	c-32.6,40-44.8,87.6-43.6,137.7c0.8,33.1,8.5,66.1,12.2,99.2c2.4,20.8,5.5,41.9,4.1,62.6c-2,30-8,59.8-12.1,89.7
	c-0.3,2.2,0.7,4.7,1.1,7c2.2-0.9,5.4-1.1,6.6-2.7c6.5-8.7,14.3-17,18.4-26.8c14.2-33.5,21-68.7,17.9-105.3
	c-3-35.2-7.7-70.4-9.5-105.7c-2.3-44.9,6.8-87.6,31.3-126.1c14-22,32.1-39.9,54.4-53.3c2.7-1.6,7.1-0.3,10.7-0.3
	c-1.8,2.5-3.1,5.7-5.4,7.4c-47,34.2-72.8,80.8-78.5,138.1c-3.6,36.5,1.8,73,5.4,109.4c2.5,25.8,5.1,51.6-0.4,77.4
	c-1.4,6.5-1.8,13.2-2.8,20.5c1.5-0.7,1.9-0.8,2-0.9c0.4-1.1,0.7-2.2,1.1-3.2c21.6-51.2,29-103.7,15.5-158.5
	c-6-24.4-4.6-49.2,1.6-73.6c0.5-2,2.9-3.6,4.4-5.3c1,2,2.8,3.9,3,6c2.6,28.3,4.9,56.7,7.5,85c1.1,11.4,3.6,22.8,4,34.2
	c1.2,35.1-7.8,68.3-19.2,101.1c-1.3,3.7-1.7,7.7-2.5,11.5c0.8,0.3,1.6,0.5,2.4,0.8c2.2-2.5,4.7-4.9,6.4-7.7
	c19.7-32.9,30.7-68.6,33.8-106.7c1.8-21.9-4.2-42.7-10.8-63.3c-7.9-24.8-14-49.9-10.1-76.3c3.8-25.4,13.7-47,37.6-59.5
	c2.8-1.5,7-0.3,10.5-0.3c-1.6,3.1-2.5,7.3-5,9.2c-15.3,11.5-25.9,26-29.7,45c-5.2,26.3-1,51.7,8.3,76.2
	c15.7,41.2,16.2,82.4,2.5,124.1c-1.9,5.6-2.7,11.6-4,17.5c0.8,0.2,1.6,0.4,2.4,0.6c11.5-19.2,20.2-39.6,26.4-61.2
	c7.6-26.4,7.7-52.6-2.1-78.7c-3.9-10.5-6.9-21.3-9.5-32.2c-5.3-21.8-4.8-43.4,5.1-64c1.3-2.8,5.6-4.2,8.5-6.2c0,3.2,1,6.9-0.2,9.5
	c-7.7,16.1-8.3,38.1-1.3,53.2c2.3-11.2,3.4-23.2,7.5-34.1c5.8-15.4,13.7-30.2,21.3-44.8c1.2-2.3,6.1-2.6,9.3-3.9
	c0.5,3.4,2,7,1.3,10.1c-1.7,6.9-4.7,13.6-6.9,20.4c-6.4,19.7-12.9,39.5-11.4,60.6c3,42.5,16.2,81.4,40.3,116.7
	c9.4,13.7,18.1,28,26,42.6c7.3,13.6,8.7,28,3.3,43.2c-2.1,6.1-2,13.8-0.5,20.2c11.5,48.2,29.7,94.2,49.2,139.6
	c13.8,32.1,16.8,64.9,7.9,98.6c-2,7.7,0.2,12.9,6,18.2c5.8,5.3,11.3,11.7,14.7,18.7c6.7,13.9,16.8,21.2,32,20.8
	c9.4-0.3,12.4-5.3,7.5-13.5c-4.9-8.2-11.3-14.6-21.3-16.1c-6.7-1-7.4-4.6-6-10.5c1.2-4.8,1.5-10,0.9-14.8c-0.9-7.4-3.1-14.6-4.3-22
	c-4.7-31.3-9.2-62.5-13.8-93.8c-5.2-35.5-10.4-71.1-15.4-106.6c-2.4-17,3.3-30.8,18.1-39.9c25.7-15.8,37.9-40,43.7-68.4
	c5.9-29,11-58.2,18.2-86.8c2.4-9.8,9.7-18.5,15.7-27c1.3-1.8,8.4-2.1,10-0.4c2.3,2.4,3.9,8.8,2.3,10.9
	c-13.5,17.8-16.5,38.9-20.3,59.8c-2.1,11.4-1.5,11.6,9.8,10.2c26-3.3,51.6-0.2,76.7,7.5c6.1,1.9,11.5,6,9.1,13.3
	c-2.5,7.6-9.1,5.8-14.6,3.7c-18.9-7.3-38.4-9.1-58.5-8.6c-24.1,0.6-25.2,0.9-31.4,23.9c-8.7,32.4-21.3,61.9-52.1,80.2
	c-4.2,2.5-7.9,10.1-7.7,15.2c1.2,26.4,2.4,52.9,6,79.1c5.4,38.4,13,76.5,19.4,114.7c3.6,21.6,10.2,41.5,25.3,58.5
	c6.7,7.5,11.1,17.4,15.5,26.7c3.7,7.8,1.3,13.1-6,16.2c-21.2,9-47.2,2.6-61.9-12.7c-7.9-8.3-14.5-18-22.8-25.7
	c-10-9.3-13.2-20.8-10.3-32.7c6.9-28.6,4.4-55.8-6.5-82.7c-16-39.4-31.7-78.9-47.3-118.4c-8.9-22.4-12.2-45.4-6.5-69.2
	c2.6-11.1-0.5-20.8-7.4-29.5c-1.1,0.7-1.8,0.8-2,1.3c-0.6,1-1.1,2-1.4,3.1c-4.8,21.2-16.5,38.3-30.8,54.1
	c-11.6,12.7-17.8,28-19.4,45.2c-3.2,35-6.8,69.9-9.8,104.8c-1.8,20.6-3.5,41.3-3.6,62c-0.1,16.2,2.7,31.7,16.6,43.6
	c7.8,6.7,12.2,16.4,12.7,27.5c0.5,11.8-2.5,16-14.8,15.8c-15.5-0.3-30.9-2.1-46.4-2.7c-10-0.4-16.7-4.4-19.1-14.5
	c-0.7-3-1.4-6.1-2.3-9.1c-3.5-12-6.2-24.3-10.8-35.9c-3.8-9.5-5.2-18.5-2.2-28.4c7.1-23.2,11.8-46.9,11-71.3
	c-1-30.8-2.1-61.6-3.8-92.4c-0.4-7.9-3.3-15.6-5-23.5c-0.9,0.1-1.8,0.2-2.6,0.2c-16,24.7-38.4,42.8-62,59.5
	c-8.3,5.9-17.4,9.4-28.7,9.5C2207-1499.1,2206.8-1500.6,2207-1501.9z M2352.3-1323.7c-5.9,0.5-9.6-2.7-5.7-8.4
	c3.9-5.6,2.8-11,2.7-17c-0.4-19.3-1-38.7,0.7-57.9c3.2-37.2,8-74.3,11.9-111.5c1.3-12.3,1.2-24.8,3.4-36.9
	c3.2-17.5,11.5-33.3,22.6-47c15.3-18.7,21.7-40.9,28.1-63.3c0.7-2.3,0.7-5.5-0.3-7.6c-9.4-18-19.1-35.8-28.2-52.6
	c-4.8,18.7-8.4,38.1-14.7,56.6c-10.4,30.6-27.6,57.5-50,80.8c-8,8.3-10.9,17.4-8.7,28.3c6.9,34.9,8.1,70.2,9.6,105.6
	c1.1,27.3-0.8,53.9-10.8,79.7c-1.8,4.6-0.6,11.5,1.6,16.3c6.7,14.4,13.4,28.6,13.5,45c0,2.7,3.9,7.3,6.4,7.6
	c12.2,1.6,24.6,2.2,36.9,2.9c1.5,0.1,3-1.4,5.4-2.6C2371-1316.1,2365.6-1324.9,2352.3-1323.7z"/>
<path class="st0" d="M1868-1496.2c-11.3-0.1-20.4-3.6-28.7-9.5c-23.6-16.7-45.9-34.8-62-59.5c-0.9-0.1-1.8-0.2-2.6-0.2
	c-1.7,7.8-4.5,15.6-5,23.5c-1.7,30.8-2.9,61.6-3.8,92.4c-0.8,24.4,3.9,48.1,11,71.3c3,9.9,1.6,18.8-2.2,28.4
	c-4.6,11.6-7.3,23.9-10.8,35.9c-0.9,3-1.5,6-2.3,9.1c-2.4,10.1-9.1,14.1-19.1,14.5c-15.5,0.7-30.9,2.4-46.4,2.7
	c-12.4,0.2-15.3-4-14.8-15.8c0.5-11.1,5-20.9,12.7-27.5c13.9-11.9,16.7-27.4,16.6-43.6c-0.1-20.7-1.9-41.4-3.6-62
	c-3-35-6.6-69.9-9.8-104.8c-1.6-17.2-7.8-32.4-19.4-45.2c-14.3-15.8-26-33-30.8-54.1c-0.2-1.1-0.8-2.1-1.4-3.1
	c-0.2-0.4-0.9-0.6-2-1.3c-6.9,8.8-10.1,18.4-7.4,29.5c5.7,23.8,2.4,46.8-6.5,69.2c-15.6,39.5-31.4,79-47.3,118.4
	c-10.9,27-13.5,54.2-6.5,82.7c2.9,11.9-0.3,23.4-10.3,32.7c-8.4,7.7-14.9,17.4-22.8,25.7c-14.7,15.3-40.7,21.7-61.9,12.7
	c-7.3-3.1-9.7-8.4-6-16.2c4.4-9.3,8.8-19.2,15.5-26.7c15.1-16.9,21.6-36.9,25.3-58.5c6.4-38.2,14-76.3,19.4-114.7
	c3.7-26.1,4.9-52.7,6-79.1c0.2-5.1-3.5-12.7-7.7-15.2c-30.8-18.3-43.4-47.8-52.1-80.2c-6.2-23-7.3-23.3-31.4-23.9
	c-20.1-0.5-39.6,1.3-58.5,8.6c-5.5,2.1-12.1,3.9-14.6-3.7c-2.4-7.3,3.1-11.4,9.1-13.3c25-7.6,50.6-10.7,76.7-7.5
	c11.3,1.4,11.9,1.3,9.8-10.2c-3.8-20.9-6.8-42-20.3-59.8c-1.6-2.1,0.1-8.5,2.3-10.9c1.6-1.7,8.8-1.4,10,0.4c6,8.5,13.3,17.3,15.7,27
	c7.2,28.7,12.2,57.9,18.2,86.8c5.8,28.4,18,52.6,43.7,68.4c14.8,9.1,20.5,22.9,18.1,39.9c-5,35.6-10.2,71.1-15.4,106.6
	c-4.6,31.3-9.1,62.6-13.8,93.8c-1.1,7.4-3.4,14.6-4.3,22c-0.6,4.9-0.2,10.1,0.9,14.8c1.4,5.9,0.8,9.5-6,10.5
	c-9.9,1.5-16.4,8-21.3,16.1c-4.9,8.2-1.9,13.3,7.5,13.5c15.2,0.4,25.2-6.9,32-20.8c3.4-7,8.9-13.4,14.7-18.7c5.8-5.4,8-10.5,6-18.2
	c-8.8-33.8-5.8-66.5,7.9-98.6c19.5-45.4,37.7-91.4,49.2-139.6c1.5-6.4,1.6-14.1-0.5-20.2c-5.3-15.2-4-29.7,3.3-43.2
	c7.9-14.6,16.6-28.9,26-42.6c24.2-35.3,37.3-74.2,40.3-116.7c1.5-21.1-5-40.9-11.4-60.6c-2.2-6.8-5.2-13.4-6.9-20.4
	c-0.8-3.1,0.8-6.7,1.3-10.1c3.2,1.2,8.1,1.6,9.3,3.9c7.7,14.7,15.5,29.4,21.3,44.8c4.1,10.8,5.1,22.8,7.5,34.1
	c7.1-15,6.4-37-1.3-53.2c-1.2-2.6-0.2-6.3-0.2-9.5c2.9,2,7.2,3.4,8.5,6.2c9.9,20.6,10.4,42.2,5.1,64c-2.7,10.9-5.6,21.8-9.5,32.2
	c-9.8,26.1-9.7,52.2-2.1,78.7c6.2,21.6,14.9,42,26.4,61.2c0.8-0.2,1.6-0.4,2.4-0.6c-1.3-5.8-2.1-11.8-4-17.5
	c-13.8-41.7-13.2-82.9,2.5-124.1c9.3-24.5,13.5-49.9,8.3-76.2c-3.8-19-14.4-33.5-29.7-45c-2.5-1.9-3.4-6.1-5-9.2
	c3.5,0.1,7.7-1.1,10.5,0.3c23.9,12.5,33.8,34.1,37.6,59.5c3.9,26.4-2.2,51.5-10.1,76.3c-6.6,20.6-12.6,41.4-10.8,63.3
	c3.1,38.1,14,73.8,33.8,106.7c1.7,2.8,4.3,5.1,6.4,7.7c0.8-0.3,1.6-0.5,2.4-0.8c-0.8-3.8-1.2-7.8-2.5-11.5
	c-11.4-32.8-20.4-66-19.2-101.1c0.4-11.4,2.9-22.8,4-34.2c2.6-28.3,4.9-56.7,7.5-85c0.2-2.1,2-4,3-6c1.5,1.8,3.9,3.3,4.4,5.3
	c6.2,24.4,7.6,49.2,1.6,73.6c-13.5,54.8-6,107.2,15.5,158.5c0.4,1,0.7,2.2,1.1,3.2c0.1,0.2,0.5,0.2,2,0.9c-1-7.3-1.4-14-2.8-20.5
	c-5.4-25.8-2.9-51.6-0.4-77.4c3.6-36.4,9.1-72.8,5.4-109.4c-5.7-57.3-31.6-103.9-78.5-138.1c-2.4-1.7-3.6-4.9-5.4-7.4
	c3.6,0,8-1.3,10.7,0.3c22.4,13.4,40.5,31.3,54.4,53.3c24.5,38.5,33.6,81.2,31.3,126.1c-1.8,35.3-6.5,70.4-9.5,105.7
	c-3.1,36.6,3.7,71.7,17.9,105.3c4.1,9.8,11.9,18.1,18.4,26.8c1.2,1.6,4.3,1.9,6.6,2.7c0.4-2.3,1.4-4.8,1.1-7
	c-4.1-29.9-10-59.6-12.1-89.7c-1.4-20.7,1.8-41.8,4.1-62.6c3.8-33.1,11.4-66.1,12.2-99.2c1.2-50.1-10.9-97.7-43.6-137.7
	c-28.8-35.3-66.6-39.6-108.1-29.9c-6.7,1.6-13.2,4.7-20,5.1c-5.5,0.3-13.4-0.5-16.3-4.1c-28.5-34.7-66.7-41.3-107.8-36.8
	c-35.7,3.9-71,10.7-106.6,15.6c-6.2,0.8-13-0.6-19-2.5c-2.2-0.7-4.6-6.5-3.9-9.1c0.8-2.7,5-5.7,8.1-6.2c25.3-3.8,50.5-7.7,75.9-10.4
	c24.8-2.6,49.8-5,74.7-5.1c22.6-0.1,44.8,5.4,64.3,17.1c9.4,5.6,17.4,13.9,24.8,22.1c4.4,4.9,7.8,6.4,13.9,4.4
	c26.1-8.8,52.5-12,79.7-4.5c35.2,9.7,57.3,33.8,72.5,65.4c11.5,23.8,16.7,49.4,20.6,75.4c6.2,41.4-0.3,82.1-7.7,122.6
	c-11.8,64.9-5.7,128.2,14.8,190.6c0.6,1.9,1.3,3.8,1.7,5.7C1868.2-1500.6,1868-1499.1,1868-1496.2z M1698.2-1305.6
	c2.4,1.2,3.9,2.6,5.4,2.6c12.3-0.7,24.7-1.3,36.9-2.9c2.5-0.3,6.4-4.9,6.4-7.6c0.1-16.4,6.8-30.6,13.5-45c2.2-4.7,3.4-11.7,1.6-16.3
	c-10-25.8-11.9-52.4-10.8-79.7c1.5-35.4,2.7-70.7,9.6-105.6c2.2-10.9-0.7-20-8.7-28.3c-22.4-23.3-39.6-50.2-50-80.8
	c-6.3-18.5-9.9-37.8-14.7-56.6c-9.1,16.8-18.8,34.6-28.2,52.6c-1.1,2-1,5.2-0.3,7.6c6.4,22.4,12.8,44.6,28.1,63.3
	c11.2,13.7,19.4,29.4,22.6,47c2.2,12.1,2.1,24.6,3.4,36.9c4,37.2,8.7,74.3,11.9,111.5c1.7,19.2,1.1,38.6,0.7,57.9
	c-0.1,6.1-1.2,11.4,2.7,17c3.9,5.7,0.2,8.9-5.7,8.4C1709.3-1324.9,1703.9-1316.1,1698.2-1305.6z"/>
<path class="st1" d="M1001.9-468.5c-12.5,1.7-24.5,1.7-36.5-0.6c0,0.6,0,1,0.1,1c4.9,2,5.4,5.9,5.3,10.6
	c-0.2,16.8-0.1,33.6-0.1,50.4c0,1.2,0,2.4,0,3.7c-18.5-7.6-28-7.4-45.8,0.1c0-1.3,0-2.5,0-3.7c0-17.8,0-35.6-0.1-53.4
	c0-2.5,0.9-4.3,3-5.5c1.2-0.7,2.3-1.5,3.5-2.3c-12.9,0-25.6,0-39.1,0c8.2,1.8,7.5,7.7,7.5,13.6c-0.1,41.7-0.1,83.4,0,125.2
	c0,5.6,0.8,11.4-6,14.6c12.5-2.7,24.5-3.4,36.6,0.5c0-0.8,0-1.1-0.1-1.2c-4.6-2.2-5.4-5.9-5.3-10.7c0.2-23,0-46.1,0-69.1
	c0-1.1,0-2.2,0-3.9c15.3,7.1,30.3,7.2,45.8-0.1c0,1.5,0,2.7,0,3.8c0,21.9-0.1,43.8,0.1,65.8c0.1,6.1-0.2,11.7-7.1,14.6
	c12.8-2.5,25.4-3,38,0.6c0-0.9,0.1-1.2,0-1.2c-4.8-2.3-5.7-6.2-5.7-11.3c0.2-42.7,0.1-85.4,0.1-128.2
	C995.8-460.3,994.2-466.3,1001.9-468.5z"/>
<path class="st1" d="M720.5-396.1c-6.4,4.7-13.5,9.1-19.7,14.5c-11,9.8-17.6,22.8-23.6,36c-3.5,7.8-6.7,15.7-10.2,23.5
	c-1.4,3.1-3.4,5.9-5.7,9.7c4-0.5,7.6-0.5,11-1.3c18.6-4.7,31.1-16.5,38.4-33.9c4.2-10,7.7-20.4,12.2-30.2
	c3.4-7.4,7.8-14.3,11.7-21.2c-3.7-0.4-8.3-0.6-12.8-1.6c-11.8-2.6-18.8-11.1-20-23.2c-1-10.7,0.4-20.9,6.6-29.9
	c7-10.3,17.9-12,28-10c0.7,0.1,1.4,1.4,1.7,2.3c0.3,0.8,0.1,1.8,0.1,2.6c0,34.6,0,69.2,0,103.8c0,6.9,0.2,13.8,0.2,20.7
	c0.1,6.6-2,12.2-7.6,16.1c-0.4,0.3-0.7,0.6-1,0.9c-0.1,0.2-0.2,0.4-0.6,1.4c1.7-0.4,3-0.5,4.2-0.9c11.5-3.9,23-5.7,34.8-1
	c1.1,0.4,2.3,0.7,3.7,1.1c-0.2-0.8-0.2-1.2-0.3-1.2c-8-4.5-9.6-11.8-9.6-20.2c0.1-37.2,0.1-74.3,0-111.5c0-7.8,1.7-14.3,9.1-18.2
	c0.3-0.2,0.5-0.6,1-1.3c-1.1-0.1-1.9-0.4-2.5-0.2c-11,4.5-22,2.6-33.2,0.9c-8.9-1.4-17.9-3.8-27.1-1.1c-12.6,3.7-22.9,10.6-29.8,22
	c-8.5,13.9-5.3,30.5,7.7,40.4c9.4,7.1,20.3,9.7,31.7,11C719.9-396.1,720.5-396.1,720.5-396.1z"/>
<path class="st1" d="M807.4-447.6c0.8-0.7,1.7-1.4,2.5-2.2c7.1-7.1,15.6-10.4,25.6-9.7c12.1,0.8,22.5,5.9,31.7,13.5
	c29.9,24.4,31.3,64.8,17.4,91.5c-14.5,27.9-48.1,39.1-75.9,24.9c-22.5-11.5-32.7-31.3-33.2-55.7c-0.5-22.8,8.1-42.9,22.1-60.8
	c1.7-2.1,4-3.8,6.2-5.5c0.9-0.7,2.3-0.9,3.7-1.4c-0.5,2.2-0.9,3.7-1.4,5.6C807-447.6,807.3-447.5,807.4-447.6z M827.3-384.4
	c-13-1.7-20.1-10.3-24.5-21.8c-0.5-1.2-0.9-2.5-1.3-3.8c0-0.1-0.1-0.1-0.9-0.9c-0.3,6.9-0.9,13.2-0.8,19.5c0.1,13.2,1.4,26.4,5.8,39
	c2.5,7.2,7,13.1,13.4,17.3c12,8,26.7,5.8,36-5.1c6.2-7.3,9-16,10.5-25.2c2.4-14,3-28.1,0.8-42.1c-2.1-14-6.2-27.4-16.3-37.9
	c-2.8-2.9-6.3-5.4-9.9-7.1c-7.6-3.6-15-2.1-21,3.5c-12.2,11.5-15.7,31.6,0.3,46.2c7.7,7.1,17.6,7.1,25.8,0.7
	c0.5-0.4,1.1-0.8,1.9-1.4C848.7-392.2,839.6-382.8,827.3-384.4z"/>
<path class="st1" d="M627.7-363.1c2.7,0.6,5.4,1,7.9,1.9c12.6,4.7,16.6,19.6,8,30.6c-7.9,10.1-18.8,13.5-31.2,11.6
	c-12.2-1.9-20.6-8.9-24.5-20.8c-1.2-3.7-0.9-7.1,1.2-10.5c6.4-10.5,15.1-18.8,23.9-27.2c8.9-8.4,17.8-16.7,26.2-25.6
	c7.1-7.6,12.5-16.5,13.8-27.2c1.4-11.8-2.4-22.2-9.4-31.4c-4.2-5.6-10.7-8-17.4-8.8c-10.9-1.3-21.6,0.2-31.2,5.9
	c-1.7,1-3.2,2.9-4.1,4.8c-4,8.1-7.6,16.3-11.4,24.4c-0.4,1-0.9,1.9-0.9,3.3c1.3-1.2,2.6-2.4,3.9-3.7c5.8-5.9,11.1-12.2,17.4-17.5
	c4.4-3.7,9.8-6.5,15.2-8.6c10-3.9,18.1,1.7,19.2,12.5c0.7,7-1.7,12.6-6.7,17.4c-7.5,7.1-15,14.2-22.3,21.6
	c-11.3,11.4-21.9,23.4-28.7,38.2c-7.3,16.2-3.6,34.5,9.7,46.2c11.8,10.4,25.4,15.6,41.4,13c19.5-3.2,36.6-22.7,35.8-41.4
	c-0.6-15.6-16.5-24.5-29.7-16.5C630.5-369.3,628-366.9,627.7-363.1z"/>
<path class="st1" d="M402.9-432.3c2.5-2.5,5.1-5.1,7.6-7.6c5-5,9.7-10.5,15.3-14.8c4.5-3.5,9.9-6,15.2-8c7.2-2.7,14,1.1,16.5,8.7
	c2.4,7.2,1.7,14.2-3.9,19.8c-9.5,9.7-19.4,19-28.9,28.7c-9,9.2-16.9,19.2-22.7,30.7c-9.4,18.7-4.7,38.8,11.9,51.4
	c9.8,7.4,20.7,11.4,33.1,10.8c18.4-0.9,37-16.7,40.2-34.8c0.7-4.1,0.5-8.8-0.6-12.8c-3.5-13.2-19-18.3-29.9-10
	c-2.1,1.6-3.5,4.2-5.6,6.9c3.6,0.8,6.3,1.2,8.7,2.1c12.4,4.5,16.7,19.1,8.4,30.2c-8.1,10.9-19.6,14.2-32.6,11.8
	c-12.6-2.4-20.8-10-23.8-22.6c-0.6-2.3,0.1-5.4,1.3-7.6c5-9.4,12.5-16.9,20.2-24.2c8.8-8.4,17.8-16.5,26.3-25.1
	c7.5-7.5,13.9-15.9,16.7-26.5c3.6-13.8-0.3-25.9-8.6-36.8c-4-5.3-10.2-7.6-16.6-8.4c-11.5-1.5-22.6,0.1-32.7,6.3
	c-1.1,0.7-2.2,1.6-2.7,2.7c-4.4,9.2-8.6,18.5-12.9,27.7c-0.2,0.4-0.3,0.8-0.4,1.1C402.6-432.5,402.7-432.4,402.9-432.3z"/>
<path class="st1" d="M491.1-451.9c7.2,1.4,14.5,2.7,21.6,4.4c9.7,2.3,19.1,2,28.3-2.3c0.4-0.2,0.8-0.2,1.4-0.4c0,16.4,0,32.6,0,49.2
	c-1.6-0.9-3-1.7-4.5-2.4c-5.1-2.4-10.4-2.1-15.7-1.2c-6.5,1.1-13,2.6-19.5,3.9c4,6.2,12.8,9.5,21,7.6c5.1-1.2,10.1-2.6,15.2-3.9
	c1-0.3,2.1-0.4,3.5-0.7c0,20.6,0,40.9,0,61.6c-3.4-0.7-6.7-1.5-10-2.1c-9.6-2-19-1.2-28.3,1.6c-6.9,2.1-14,3.9-21,5.9
	c3.9,3.4,8.8,5.2,14.1,5.9c8.8,1.2,17.2-0.8,25.7-2.3c8-1.5,15.9-3.1,23.9-4c7.8-0.9,15.4,0.6,22.8,3.6c-0.4-0.5-0.6-1-1.1-1.4
	c-3.3-2.9-4.9-6.7-4.9-10.9c-0.1-36.2-0.1-72.3,0.1-108.5c0-2,2.1-4.1,3.5-6c0.7-0.9,1.9-1.4,2.4-1.8c-6.3,0.4-13,1.6-19.5,1.1
	c-8.4-0.6-16.7-2.4-25-3.7c-10.2-1.5-20.2-1.2-29.6,3.6c-1.2,0.6-2.3,1.4-3.4,2.1C491.7-452.4,491.2-452,491.1-451.9z"/>
<path class="st1" d="M836.2-525.1c1.2-6.9,5.5-10.2,12.5-9.5c2.3,0.2,4.6,0.6,6.9,1.3c10,2.8,16.3,10.3,17,20.2
	c0.6,8.8-4.1,14.4-12.7,13.3c-7.5-0.9-14.8-3.5-21.8-5.3c0-3.1,0-5.6,0-8.3c1.3,0.8,2.2,1.4,3.1,2c5.1,2.9,10.5,5.6,16.6,5.2
	c2.1-0.2,4.4-1.4,6.1-2.8c1.2-1,1.5-2.7-1.1-3.3c-8.8-2-17.7-4.2-27-6.5C835.8-520.8,835.8-523,836.2-525.1z M864-517.5
	c0.3-0.2,0.6-0.4,0.8-0.6c-0.9-1.8-1.6-3.9-2.9-5.4c-3.1-3.6-7.3-5-11.9-5.1c-3.8-0.1-5.5,1.8-6.2,6.2
	C850.5-520.7,857.2-519.1,864-517.5z"/>
<path class="st1" d="M917.7-528.9c-3.5-0.9-6.8-1.7-10.3-2.6c0,4.9,0,9.7,0,14.9c-1-0.8-1.6-1.3-2.2-1.8c-4.8-4.4-10.6-6.4-17.1-6.4
	c-4.6,0-7.4,2.4-7.9,6.9c-0.5,4.4-0.2,8.9-0.6,13.3c-0.2,2.8-1,5.6-1.5,8.8c3.3,0.8,7.4,1.8,11.7,2.9c-4.1-7.1-2.7-14.4-2.1-21.6
	c0.3-3,2.5-4.3,5.4-4.2c8.3,0.2,14.2,6.2,14.3,14.4c0,2.4,0.2,4.9-0.1,7.3c-0.3,2.5-1.1,5-1.8,7.9c3.3,0.8,7.4,1.8,11.8,2.9
	C913.8-493.9,913.9-523.5,917.7-528.9z"/>
<path class="st1" d="M963.8-517.9c-13.9-3.4-28-6.8-41.9-10.2c-0.7,2.8-1.3,5.4-1.8,7.5c6,0.7,12,1.3,18.4,2c0,2.6,0,4.7,0,6.8
	c0,7.6,0.1,15.1-0.1,22.7c-0.1,2.5-1.1,4.9-1.8,7.5c3.5,0.9,7.9,1.9,11.6,2.8c-0.4-3.8-1.1-7.7-1.1-11.5c-0.2-8.4-0.1-16.9-0.1-26.2
	c6.6,2.4,12.5,4.7,18.5,6.9C965-511.8,964.5-514.6,963.8-517.9z"/>
<path class="st1" d="M215.3-386.4c0.2-14.3,4.8-27.2,12.3-39c3.5-5.5,8-10.2,11.9-15.5c0.7-0.9,0.5-2.4,0.7-3.7
	c-1.3-0.1-3-0.8-3.8-0.2c-2.1,1.4-4,3.2-5.5,5.3c-9.2,12.4-16.6,25.7-19.5,41.1c-1.5,8-0.5,15.9,0.6,23.8
	c1.5,10.2,2.6,20.4,3.9,30.7c0.1,0.9,1,1.7,1.5,2.6c0.8-0.8,2.1-1.6,2.2-2.5c0.2-2.6,0-5.3-0.3-7.9
	C218.1-363.3,216.7-374.9,215.3-386.4z"/>
<path class="st1" d="M342.8-439.4c-1.4,3.5-0.4,6.9,2.5,9C347.3-433.5,346.3-437.7,342.8-439.4z"/>
<path class="st1" d="M309-338.8c1.4-1.7,2.8-2.8,2.8-3.8c0-0.9-1.8-2.4-2.7-2.3c-1.1,0.1-2.5,1.4-2.9,2.6
	C306-341.7,307.6-340.5,309-338.8z"/>
<path class="st1" d="M302.6-334c1.7,1.2,2.8,2.6,3.8,2.4c0.9-0.1,2.3-1.8,2.3-2.8c-0.1-1-1.6-2.6-2.5-2.6
	C305.1-337,304.2-335.4,302.6-334z"/>
<path class="st1" d="M294.1-344.9c1.9,1.2,3.1,2.4,3.8,2.2c1.1-0.3,1.8-1.7,2.7-2.6c-0.9-0.8-1.8-2.3-2.7-2.3
	C296.9-347.7,295.9-346.3,294.1-344.9z"/>
<path class="st1" d="M344.4-422.5c-1.5-1.1-2.7-2.1-3.9-2.8c-0.2-0.1-1.6,1.3-1.5,1.4c1,1.4,2.1,2.8,3.2,4.1
	C342.7-420.5,343.2-421.1,344.4-422.5z"/>
<path class="st1" d="M311-359.2c1.6,1,2.7,2,2.9,1.9c1.2-0.9,2.2-2.1,3.3-3.2c-0.6-0.6-1.5-1.8-1.8-1.7
	C314-361.6,312.9-360.6,311-359.2z"/>
<path class="st1" d="M944.8-234.6c0-1.8,0-3.6,0-5.5c-159,0-317.8,0-476.9,0c0,1.8,0,3.5,0,5.5C626.8-234.6,785.7-234.6,944.8-234.6
	z"/>
<path class="st1" d="M467.7-306.7c0,2,0,3.6,0,5.5c159,0,317.8,0,476.9,0c0-1.7,0-3.5,0-5.5C785.8-306.7,626.9-306.7,467.7-306.7z"
	/>
<path class="st1" d="M652.3-249.3c4.2,0,8.2,0,12.1-0.1c0.5,0,1.2-0.7,1.6-1.2c7.8-10,15.5-20,23.7-29.9c-0.4,10.3,1.7,20.7-1.6,31
	c3.7,0,7.8,0,11.9,0c-3-5.6-2.9-32.4,0.1-37.2c-5.5,0-10.9,0-15.8,0c-7.8,10.2-15.4,20.2-23.2,30.5c-1.8-8.6-0.6-27,2-30.5
	c-4.2,0-8.2,0-11.5,0c0.4,3.6,0.9,7.2,1,10.9c0.2,7.1,0.1,14.2,0,21.3C652.6-252.8,652.4-251.3,652.3-249.3z"/>
<path class="st1" d="M585.7-286.4c0.9,2.5,1.7,4.8,2.6,7.4c7-2.8,13.9-3.9,21.1-3.2c10.3,1,16.2,8,14.7,17.4
	c-0.9,5.6-5.1,9.7-11.7,10.5c-3.9,0.5-8,0.5-11.9-0.1c-7-1-8.7-4-7.6-11.6c5.6,0,11.2,0,16.7,0c-1.1-5.1-1.6-5.6-6.6-5.7
	c-6.5-0.1-13.1,0-19.3,0c0,7,0,13.7,0,20.2c6.6,1,12.7,2,18.9,2.9c6.4,1,12.7,0.1,18.7-2c8.6-3,12.6-8.9,12.5-17.6
	c-0.1-8.1-4.9-14.3-13.5-17.4c-8.1-2.9-16.4-2.2-24.7-1.7C592.4-287.1,589.4-286.7,585.7-286.4z"/>
<path class="st1" d="M833.3-281.6c8.8,7.2,8.5,20.9-0.4,27.9c-4.3,3.3-9.3,4.7-14.5,5.2c-8.2,0.8-16.3,0-23.4-4.6
	c-11.8-7.8-10.9-24.6,1.6-31.3c5-2.7,10.5-3.5,15.7-3.2C820.2-287.8,827.4-286.5,833.3-281.6z M829-262.1
	c3.7-8.4-1.1-17.3-10.4-19.4c-2.3-0.5-4.6-0.6-6.9-0.6c-9.4,0.2-14.7,4.9-15.1,13.3c-0.3,8.2,5.2,13.9,14.3,14.7c1,0.1,2,0,3,0
	C820.3-254.1,826.2-255.6,829-262.1z"/>
<path class="st1" d="M552.5-266.2c0,4,0,7.5,0,11.6c-12.2-0.7-24.4,1.8-36.6-2.9c0.9,2.8,1.7,5.2,2.6,8.1c14.8,0,30,0,45.2,0
	c-3-6-2.9-32.4,0.3-37.2c-15.1,0-30,0-44.7,0c-0.7,2.5-1.4,4.8-2.1,7.5c11.6-3.8,23.3-1.9,35.1-2.5c0,3.4,0,6.6,0,10
	c-8.7,0-17.5,0-26.4,0c1.6,3.4,3.7,5.8,8.2,5.5C540.1-266.5,546.1-266.2,552.5-266.2z"/>
<path class="st1" d="M731.9-286.7c-3.7,0-8.1,0-11.8,0c0.5,2.9,1.2,5.8,1.4,8.8c0.2,4.3,0.1,8.7,0.1,13c0,9.1,3.5,13.5,12.3,15.6
	c7.4,1.7,14.8,1.7,22.1-0.5c7-2.1,10.2-6.5,10.2-13.8c0-4.8-0.2-9.6,0.1-14.3c0.2-3,1-5.9,1.5-8.8c-3.7,0-8.1,0-13.1,0
	c3.1,3.3,2.7,7.2,2.7,11c0,3.3,0,6.7,0,10c0,7.5-2.9,10.8-10.3,11.6c-2.1,0.2-4.2,0.2-6.3,0c-7.3-0.8-10.1-3.9-10.1-11.3
	c0-4.4-0.2-8.9,0.1-13.3C730.7-281.4,731.5-284,731.9-286.7z"/>
<path class="st1" d="M895.4-286.7c-3.6,0-8,0-11.6,0c0.4,3.4,1.1,6.9,1.2,10.3c0.2,7.1,0.1,14.2,0.1,21.7
	c-10.6-0.5-21.1,1.5-31.4-3.1c1,3,1.9,5.5,2.8,8.3c12.9,0,26.2,0,38.7,0C893.5-262,893.2-274.3,895.4-286.7z"/>
<path class="st1" d="M308-351.2c1.3,0.5,2.5,1.3,2.9,1c0.8-0.5,1.4-1.7,1.6-2.7c0.1-0.6-0.9-1.3-1.4-2
	C310.5-354.1,309.8-353.3,308-351.2z"/>
<path class="st1" d="M315.5-340.2c1.2,0.9,2,1.9,2.8,1.9c0.5,0,1.7-1.3,1.6-1.9c-0.2-0.8-1.1-1.8-1.9-2
	C317.5-342.3,316.7-341.2,315.5-340.2z"/>
<path class="st1" d="M314.6-347.8c0.9,0.4,1.8,1.2,2.6,1.1c0.8-0.1,1.8-1.2,1.9-2c0.1-0.6-1-2-1.4-2c-0.9,0.1-1.6,1-2.4,1.5
	C315.1-348.7,314.9-348.3,314.6-347.8z"/>
<path class="st1" d="M344.9-425.4c0.3,1.8,1.2,3,3.2,2.5c0.5-0.1,0.8-1.1,1.1-1.7c-1.2-0.7-2.4-1.4-3.6-2.1
	C345.3-426.2,345.1-425.8,344.9-425.4z"/>
<text transform="matrix(-0.7378 0 0 1 898.3506 -191.8053)" class="st1 st2" style="font-size:34.4339px;">SCHENECTADY, NY </text>
<rect x="26.5" y="-1218.3" class="st0" width="1137.6" height="538.7"/>
<path class="st1" d="M1001.8-856.8c-4.4-0.1-7.9-1.4-11.1-3.7c-9.1-6.5-17.7-13.4-23.9-23c-0.3,0-0.7-0.1-1-0.1
	c-0.7,3-1.8,6-1.9,9.1c-0.7,11.9-1.1,23.8-1.5,35.7c-0.3,9.4,1.5,18.6,4.2,27.5c1.2,3.8,0.6,7.3-0.9,11c-1.8,4.5-2.8,9.2-4.2,13.9
	c-0.3,1.2-0.6,2.3-0.9,3.5c-0.9,3.9-3.5,5.4-7.4,5.6c-6,0.3-12,0.9-17.9,1.1c-4.8,0.1-5.9-1.5-5.7-6.1c0.2-4.3,1.9-8.1,4.9-10.6
	c5.4-4.6,6.4-10.6,6.4-16.8c-0.1-8-0.7-16-1.4-24c-1.2-13.5-2.5-27-3.8-40.5c-0.6-6.6-3-12.5-7.5-17.4c-5.5-6.1-10-12.7-11.9-20.9
	c-0.1-0.4-0.3-0.8-0.5-1.2c-0.1-0.2-0.4-0.2-0.8-0.5c-2.7,3.4-3.9,7.1-2.9,11.4c2.2,9.2,0.9,18.1-2.5,26.7
	c-6,15.3-12.1,30.5-18.3,45.7c-4.2,10.4-5.2,20.9-2.5,32c1.1,4.6-0.1,9-4,12.6c-3.2,3-5.8,6.7-8.8,9.9c-5.7,5.9-15.7,8.4-23.9,4.9
	c-2.8-1.2-3.7-3.2-2.3-6.3c1.7-3.6,3.4-7.4,6-10.3c5.8-6.5,8.4-14.2,9.8-22.6c2.5-14.8,5.4-29.5,7.5-44.3
	c1.4-10.1,1.9-20.3,2.3-30.5c0.1-2-1.3-4.9-3-5.9c-11.9-7.1-16.8-18.5-20.1-31c-2.4-8.9-2.8-9-12.1-9.2c-7.7-0.2-15.3,0.5-22.6,3.3
	c-2.1,0.8-4.7,1.5-5.6-1.4c-0.9-2.8,1.2-4.4,3.5-5.1c9.7-2.9,19.5-4.2,29.6-2.9c4.4,0.5,4.6,0.5,3.8-3.9c-1.5-8.1-2.6-16.2-7.8-23.1
	c-0.6-0.8,0-3.3,0.9-4.2c0.6-0.7,3.4-0.5,3.9,0.2c2.3,3.3,5.1,6.7,6.1,10.4c2.8,11.1,4.7,22.3,7,33.5c2.2,11,6.9,20.3,16.9,26.4
	c5.7,3.5,7.9,8.9,7,15.4c-1.9,13.7-4,27.5-6,41.2c-1.8,12.1-3.5,24.2-5.3,36.2c-0.4,2.8-1.3,5.6-1.6,8.5c-0.2,1.9-0.1,3.9,0.4,5.7
	c0.6,2.3,0.3,3.7-2.3,4.1c-3.8,0.6-6.3,3.1-8.2,6.2c-1.9,3.2-0.7,5.1,2.9,5.2c5.9,0.2,9.7-2.7,12.3-8c1.3-2.7,3.4-5.2,5.7-7.2
	c2.2-2.1,3.1-4.1,2.3-7c-3.4-13-2.3-25.7,3.1-38.1c7.5-17.5,14.5-35.3,19-53.9c0.6-2.5,0.6-5.4-0.2-7.8c-2.1-5.9-1.5-11.5,1.3-16.7
	c3.1-5.7,6.4-11.2,10.1-16.5c9.3-13.6,14.4-28.7,15.6-45.1c0.6-8.2-1.9-15.8-4.4-23.4c-0.9-2.6-2-5.2-2.7-7.9
	c-0.3-1.2,0.3-2.6,0.5-3.9c1.2,0.5,3.1,0.6,3.6,1.5c3,5.7,6,11.4,8.2,17.3c1.6,4.2,2,8.8,2.9,13.2c2.7-5.8,2.5-14.3-0.5-20.5
	c-0.5-1-0.1-2.4-0.1-3.7c1.1,0.8,2.8,1.3,3.3,2.4c3.8,7.9,4,16.3,2,24.7c-1,4.2-2.2,8.4-3.7,12.4c-3.8,10.1-3.7,20.2-0.8,30.4
	c2.4,8.3,5.8,16.2,10.2,23.6c0.3-0.1,0.6-0.2,0.9-0.2c-0.5-2.3-0.8-4.6-1.5-6.7c-5.3-16.1-5.1-32,1-47.9c3.6-9.5,5.2-19.3,3.2-29.4
	c-1.5-7.4-5.6-12.9-11.5-17.4c-1-0.7-1.3-2.3-1.9-3.5c1.4,0,3-0.4,4.1,0.1c9.2,4.8,13.1,13.2,14.5,23c1.5,10.2-0.9,19.9-3.9,29.5
	c-2.5,8-4.9,16-4.2,24.5c1.2,14.7,5.4,28.5,13,41.2c0.7,1.1,1.6,2,2.5,3c0.3-0.1,0.6-0.2,0.9-0.3c-0.3-1.5-0.5-3-0.9-4.4
	c-4.4-12.7-7.9-25.5-7.4-39c0.1-4.4,1.1-8.8,1.5-13.2c1-10.9,1.9-21.9,2.9-32.8c0.1-0.8,0.8-1.6,1.2-2.3c0.6,0.7,1.5,1.3,1.7,2.1
	c2.4,9.4,2.9,19,0.6,28.4c-5.2,21.2-2.3,41.4,6,61.2c0.2,0.4,0.3,0.8,0.4,1.2c0,0.1,0.2,0.1,0.8,0.4c-0.4-2.8-0.6-5.4-1.1-7.9
	c-2.1-10-1.1-19.9-0.1-29.9c1.4-14,3.5-28.1,2.1-42.2c-2.2-22.1-12.2-40.1-30.3-53.3c-0.9-0.7-1.4-1.9-2.1-2.9
	c1.4,0,3.1-0.5,4.1,0.1c8.6,5.2,15.6,12.1,21,20.6c9.4,14.9,13,31.4,12.1,48.7c-0.7,13.6-2.5,27.2-3.7,40.8
	c-1.2,14.1,1.4,27.7,6.9,40.6c1.6,3.8,4.6,7,7.1,10.3c0.5,0.6,1.7,0.7,2.5,1.1c0.2-0.9,0.6-1.8,0.4-2.7c-1.6-11.5-3.9-23-4.7-34.6
	c-0.5-8,0.7-16.2,1.6-24.2c1.5-12.8,4.4-25.5,4.7-38.3c0.5-19.4-4.2-37.7-16.8-53.2c-11.1-13.6-25.7-15.3-41.7-11.5
	c-2.6,0.6-5.1,1.8-7.7,2c-2.1,0.1-5.2-0.2-6.3-1.6c-11-13.4-25.8-15.9-41.7-14.2c-13.8,1.5-27.4,4.1-41.2,6c-2.4,0.3-5-0.2-7.3-1
	c-0.9-0.3-1.8-2.5-1.5-3.5c0.3-1,1.9-2.2,3.1-2.4c9.8-1.5,19.5-3,29.3-4c9.6-1,19.2-1.9,28.9-2c8.7,0,17.3,2.1,24.8,6.6
	c3.6,2.2,6.7,5.4,9.6,8.5c1.7,1.9,3,2.5,5.4,1.7c10.1-3.4,20.3-4.6,30.8-1.7c13.6,3.8,22.1,13,28,25.3c4.4,9.2,6.4,19.1,7.9,29.1
	c2.4,16-0.1,31.7-3,47.3c-4.6,25.1-2.2,49.5,5.7,73.6c0.2,0.7,0.5,1.5,0.7,2.2C1001.9-858.5,1001.8-857.9,1001.8-856.8z
	 M936.3-783.2c0.9,0.5,1.5,1,2.1,1c4.8-0.3,9.5-0.5,14.2-1.1c1-0.1,2.5-1.9,2.5-2.9c0.1-6.4,2.6-11.8,5.2-17.4
	c0.9-1.8,1.3-4.5,0.6-6.3c-3.9-10-4.6-20.3-4.2-30.8c0.6-13.7,1-27.3,3.7-40.8c0.8-4.2-0.3-7.7-3.4-10.9c-8.6-9-15.3-19.4-19.3-31.2
	c-2.4-7.1-3.8-14.6-5.7-21.8c-3.5,6.5-7.3,13.4-10.9,20.3c-0.4,0.8-0.4,2-0.1,2.9c2.5,8.6,5,17.2,10.9,24.4
	c4.3,5.3,7.5,11.4,8.7,18.1c0.8,4.7,0.8,9.5,1.3,14.3c1.5,14.4,3.4,28.7,4.6,43.1c0.6,7.4,0.4,14.9,0.3,22.3c-0.1,2.3-0.5,4.4,1,6.6
	c1.5,2.2,0.1,3.4-2.2,3.2C940.6-790.6,938.5-787.2,936.3-783.2z"/>
<path class="st1" d="M199.9-1049.5c12.5,1.7,24.5,1.7,36.5-0.6c0,0.6,0,1-0.1,1c-4.9,2-5.4,5.9-5.3,10.6c0.2,16.8,0.1,33.6,0.1,50.4
	c0,1.2,0,2.4,0,3.7c18.5-7.6,28-7.4,45.8,0.1c0-1.3,0-2.5,0-3.7c0-17.8,0-35.6,0.1-53.4c0-2.5-0.9-4.3-3-5.5
	c-1.2-0.7-2.3-1.5-3.5-2.3c12.9,0,25.6,0,39.1,0c-8.2,1.8-7.5,7.7-7.5,13.6c0.1,41.7,0.1,83.4,0,125.2c0,5.6-0.8,11.4,6,14.6
	c-12.5-2.7-24.5-3.4-36.6,0.5c0-0.8,0-1.1,0.1-1.2c4.6-2.2,5.4-5.9,5.3-10.7c-0.2-23,0-46.1,0-69.1c0-1.1,0-2.2,0-3.9
	c-15.3,7.1-30.3,7.2-45.8-0.1c0,1.5,0,2.7,0,3.8c0,21.9,0.1,43.8-0.1,65.8c-0.1,6.1,0.2,11.7,7.1,14.6c-12.8-2.5-25.4-3-38,0.6
	c0-0.9-0.1-1.2,0-1.2c4.8-2.3,5.7-6.2,5.7-11.3c-0.2-42.7-0.1-85.4-0.1-128.2C205.9-1041.3,207.6-1047.2,199.9-1049.5z"/>
<path class="st1" d="M481.2-977.1c6.4,4.7,13.5,9.1,19.7,14.5c11,9.8,17.6,22.8,23.6,36c3.5,7.8,6.7,15.7,10.2,23.5
	c1.4,3.1,3.4,5.9,5.7,9.7c-4-0.5-7.6-0.5-11-1.3c-18.6-4.7-31.1-16.5-38.4-33.9c-4.2-10-7.7-20.4-12.2-30.2
	c-3.4-7.4-7.8-14.3-11.7-21.2c3.7-0.4,8.3-0.6,12.8-1.6c11.8-2.6,18.8-11.1,20-23.2c1-10.7-0.4-20.9-6.6-29.9c-7-10.3-17.9-12-28-10
	c-0.7,0.1-1.4,1.4-1.7,2.3c-0.3,0.8-0.1,1.8-0.1,2.6c0,34.6,0,69.2,0,103.8c0,6.9-0.2,13.8-0.2,20.7c-0.1,6.6,2,12.2,7.6,16.1
	c0.4,0.3,0.7,0.6,1,0.9c0.1,0.2,0.2,0.4,0.6,1.4c-1.7-0.4-3-0.5-4.2-0.9c-11.5-3.9-23-5.7-34.8-1c-1.1,0.4-2.3,0.7-3.7,1.1
	c0.2-0.8,0.2-1.2,0.3-1.2c8-4.5,9.6-11.8,9.6-20.2c-0.1-37.2-0.1-74.3,0-111.5c0-7.8-1.7-14.3-9.1-18.2c-0.3-0.2-0.5-0.6-1-1.3
	c1.1-0.1,1.9-0.4,2.5-0.2c11,4.5,22,2.6,33.2,0.9c8.9-1.4,17.9-3.8,27.1-1.1c12.6,3.7,22.9,10.6,29.8,22c8.5,13.9,5.3,30.5-7.7,40.4
	c-9.4,7.1-20.3,9.7-31.7,11C481.9-977.1,481.2-977.1,481.2-977.1z"/>
<path class="st1" d="M395.6-1028.4c-0.5-1.8-0.9-3.4-1.4-5.6c1.5,0.5,2.8,0.7,3.7,1.4c2.2,1.7,4.5,3.3,6.2,5.5
	c14,17.8,22.6,38,22.1,60.8c-0.5,24.4-10.7,44.2-33.2,55.7c-27.8,14.1-61.4,3-75.9-24.9c-13.8-26.7-12.5-67,17.4-91.5
	c9.2-7.5,19.6-12.7,31.7-13.5c10-0.7,18.5,2.7,25.6,9.7c0.8,0.8,1.6,1.5,2.5,2.2C394.4-1028.5,394.7-1028.5,395.6-1028.4z
	 M354.6-984.3c0.8,0.6,1.4,1,1.9,1.4c8.2,6.4,18.1,6.4,25.8-0.7c16-14.6,12.6-34.7,0.3-46.2c-6-5.6-13.4-7.1-21-3.5
	c-3.6,1.7-7.1,4.2-9.9,7.1c-10.2,10.5-14.2,23.8-16.3,37.9c-2.1,14.1-1.6,28.2,0.8,42.1c1.6,9.2,4.4,17.9,10.5,25.2
	c9.3,11,24,13.1,36,5.1c6.4-4.3,10.9-10.1,13.4-17.3c4.4-12.6,5.6-25.8,5.8-39c0.1-6.3-0.5-12.6-0.8-19.5c-0.8,0.7-0.9,0.8-0.9,0.9
	c-0.4,1.3-0.8,2.5-1.3,3.8c-4.4,11.5-11.5,20.1-24.5,21.8C362.1-963.8,353.1-973.2,354.6-984.3z"/>
<path class="st1" d="M574-944.1c-2.7,0.6-5.4,1-7.9,1.9c-12.6,4.7-16.6,19.6-8,30.6c7.9,10.1,18.8,13.5,31.2,11.6
	c12.2-1.9,20.6-8.9,24.5-20.8c1.2-3.7,0.9-7.1-1.2-10.5c-6.4-10.5-15.1-18.8-23.9-27.2c-8.9-8.4-17.8-16.7-26.2-25.6
	c-7.1-7.6-12.5-16.5-13.8-27.2c-1.4-11.8,2.4-22.2,9.4-31.4c4.2-5.6,10.7-8,17.4-8.8c10.9-1.3,21.6,0.2,31.2,5.9
	c1.7,1,3.2,2.9,4.1,4.8c4,8.1,7.6,16.3,11.4,24.4c0.4,1,0.9,1.9,0.9,3.3c-1.3-1.2-2.6-2.4-3.9-3.7c-5.8-5.9-11.1-12.2-17.4-17.5
	c-4.4-3.7-9.8-6.5-15.2-8.6c-10-3.9-18.1,1.7-19.2,12.5c-0.7,7,1.7,12.6,6.7,17.4c7.5,7.1,15,14.2,22.3,21.6
	c11.3,11.4,21.9,23.4,28.7,38.2c7.3,16.2,3.6,34.5-9.7,46.2c-11.8,10.4-25.4,15.6-41.4,13c-19.5-3.2-36.6-22.7-35.8-41.4
	c0.6-15.6,16.5-24.5,29.7-16.5C571.3-950.3,573.7-947.9,574-944.1z"/>
<path class="st1" d="M798.8-1013.3c-2.5-2.5-5.1-5.1-7.6-7.6c-5-5-9.7-10.5-15.3-14.8c-4.5-3.5-9.9-6-15.2-8
	c-7.2-2.7-14,1.1-16.5,8.7c-2.4,7.2-1.7,14.2,3.9,19.8c9.5,9.7,19.4,19,28.9,28.7c9,9.2,16.9,19.2,22.7,30.7
	c9.4,18.7,4.7,38.8-11.9,51.4c-9.8,7.4-20.7,11.4-33.1,10.8c-18.4-0.9-37-16.7-40.2-34.8c-0.7-4.1-0.5-8.8,0.6-12.8
	c3.5-13.2,19-18.3,29.9-10c2.1,1.6,3.5,4.2,5.6,6.9c-3.6,0.8-6.3,1.2-8.7,2.1c-12.4,4.5-16.7,19.1-8.4,30.2
	c8.1,10.9,19.6,14.2,32.6,11.8c12.6-2.4,20.8-10,23.8-22.6c0.6-2.3-0.1-5.4-1.3-7.6c-5-9.4-12.5-16.9-20.2-24.2
	c-8.8-8.4-17.8-16.5-26.3-25.1c-7.5-7.5-13.9-15.9-16.7-26.5c-3.6-13.8,0.3-25.9,8.6-36.8c4-5.3,10.2-7.6,16.6-8.4
	c11.5-1.5,22.6,0.1,32.7,6.3c1.1,0.7,2.2,1.6,2.7,2.7c4.4,9.2,8.6,18.5,12.9,27.7c0.2,0.4,0.3,0.8,0.4,1.1
	C799.1-1013.5,799-1013.4,798.8-1013.3z"/>
<path class="st1" d="M710.6-1032.9c-7.2,1.4-14.5,2.7-21.6,4.4c-9.7,2.3-19.1,2-28.3-2.3c-0.4-0.2-0.8-0.2-1.4-0.4
	c0,16.4,0,32.6,0,49.2c1.6-0.9,3-1.7,4.5-2.4c5.1-2.4,10.4-2.1,15.7-1.2c6.5,1.1,13,2.6,19.5,3.9c-4,6.2-12.8,9.5-21,7.6
	c-5.1-1.2-10.1-2.6-15.2-3.9c-1-0.3-2.1-0.4-3.5-0.7c0,20.6,0,40.9,0,61.6c3.4-0.7,6.7-1.5,10-2.1c9.6-2,19-1.2,28.3,1.6
	c6.9,2.1,14,3.9,21,5.9c-3.9,3.4-8.8,5.2-14.1,5.9c-8.8,1.2-17.2-0.8-25.7-2.3c-8-1.5-15.9-3.1-23.9-4c-7.8-0.9-15.4,0.6-22.8,3.6
	c0.4-0.5,0.6-1,1.1-1.4c3.3-2.9,4.9-6.7,4.9-10.9c0.1-36.2,0.1-72.3-0.1-108.5c0-2-2.1-4.1-3.5-6c-0.7-0.9-1.9-1.4-2.4-1.8
	c6.3,0.4,13,1.6,19.5,1.1c8.4-0.6,16.7-2.4,25-3.7c10.2-1.5,20.2-1.2,29.6,3.6c1.2,0.6,2.3,1.4,3.4,2.1
	C710-1033.4,710.5-1032.9,710.6-1032.9z"/>
<path class="st1" d="M366.1-1099.9c-9.3,2.3-18.1,4.5-27,6.5c-2.6,0.6-2.3,2.3-1.1,3.3c1.7,1.4,4,2.6,6.1,2.8
	c6.1,0.4,11.4-2.2,16.6-5.2c1-0.5,1.9-1.2,3.1-2c0,2.7,0,5.2,0,8.3c-7.1,1.8-14.4,4.4-21.8,5.3c-8.7,1-13.4-4.5-12.7-13.3
	c0.7-9.9,7-17.4,17-20.2c2.2-0.6,4.6-1,6.9-1.3c7-0.7,11.2,2.6,12.5,9.5C365.9-1104,365.9-1101.8,366.1-1099.9z M358-1103.3
	c-0.8-4.4-2.5-6.3-6.2-6.2c-4.6,0.1-8.8,1.5-11.9,5.1c-1.3,1.5-1.9,3.6-2.9,5.4c0.3,0.2,0.6,0.4,0.8,0.6
	C344.5-1100.1,351.3-1101.7,358-1103.3z"/>
<path class="st1" d="M284.1-1109.8c3.5-0.9,6.8-1.7,10.3-2.6c0,4.9,0,9.7,0,14.9c1-0.8,1.6-1.3,2.2-1.8c4.8-4.4,10.6-6.4,17.1-6.4
	c4.6,0,7.4,2.4,7.9,6.9c0.5,4.4,0.2,8.9,0.6,13.3c0.2,2.8,1,5.6,1.5,8.8c-3.3,0.8-7.4,1.8-11.7,2.9c4.1-7.1,2.7-14.4,2.1-21.6
	c-0.3-3-2.5-4.3-5.4-4.2c-8.3,0.2-14.2,6.2-14.3,14.4c0,2.4-0.2,4.9,0.1,7.3c0.3,2.5,1.1,5,1.8,7.9c-3.3,0.8-7.4,1.8-11.8,2.9
	C288-1074.9,287.9-1104.5,284.1-1109.8z"/>
<path class="st1" d="M238-1098.9c13.9-3.4,28-6.8,41.9-10.2c0.7,2.8,1.3,5.4,1.8,7.5c-6,0.7-12,1.3-18.4,2c0,2.6,0,4.7,0,6.8
	c0,7.6-0.1,15.1,0.1,22.7c0.1,2.5,1.1,4.9,1.8,7.5c-3.5,0.9-7.9,1.9-11.6,2.8c0.4-3.8,1.1-7.7,1.1-11.5c0.2-8.4,0.1-16.9,0.1-26.2
	c-6.6,2.4-12.5,4.7-18.5,6.9C236.7-1092.8,237.3-1095.6,238-1098.9z"/>
<path class="st1" d="M986.4-967.4c-0.2-14.3-4.8-27.2-12.3-39c-3.5-5.5-8-10.2-11.9-15.5c-0.7-0.9-0.5-2.4-0.7-3.7
	c1.3-0.1,3-0.8,3.8-0.2c2.1,1.4,4,3.2,5.5,5.3c9.2,12.4,16.6,25.7,19.5,41.1c1.5,8,0.5,15.9-0.6,23.8c-1.5,10.2-2.6,20.4-3.9,30.7
	c-0.1,0.9-1,1.7-1.5,2.6c-0.8-0.8-2.1-1.6-2.2-2.5c-0.2-2.6,0-5.3,0.3-7.9C983.6-944.3,985-955.8,986.4-967.4z"/>
<path class="st1" d="M858.9-1020.3c1.4,3.5,0.4,6.9-2.5,9C854.4-1014.5,855.5-1018.6,858.9-1020.3z"/>
<path class="st1" d="M892.7-919.7c-1.4-1.7-2.8-2.8-2.8-3.8c0-0.9,1.8-2.4,2.7-2.3c1.1,0.1,2.5,1.4,2.9,2.6
	C895.7-922.7,894.1-921.4,892.7-919.7z"/>
<path class="st1" d="M899.1-915c-1.7,1.2-2.8,2.6-3.8,2.4c-0.9-0.1-2.3-1.8-2.3-2.8c0.1-1,1.6-2.6,2.5-2.6
	C896.6-917.9,897.6-916.4,899.1-915z"/>
<path class="st1" d="M907.7-925.9c-1.9,1.2-3.1,2.4-3.8,2.2c-1.1-0.3-1.8-1.7-2.7-2.6c0.9-0.8,1.8-2.3,2.7-2.3
	C904.8-928.6,905.8-927.3,907.7-925.9z"/>
<path class="st1" d="M857.4-1003.5c1.5-1.1,2.7-2.1,3.9-2.8c0.2-0.1,1.6,1.3,1.5,1.4c-1,1.4-2.1,2.8-3.2,4.1
	C859-1001.4,858.5-1002.1,857.4-1003.5z"/>
<path class="st1" d="M890.8-940.2c-1.6,1-2.7,2-2.9,1.9c-1.2-0.9-2.2-2.1-3.3-3.2c0.6-0.6,1.5-1.8,1.8-1.7
	C887.7-942.6,888.8-941.6,890.8-940.2z"/>
<path class="st1" d="M256.9-815.5c0-1.8,0-3.6,0-5.5c159,0,317.8,0,476.9,0c0,1.8,0,3.5,0,5.5C575-815.5,416-815.5,256.9-815.5z"/>
<path class="st1" d="M734-887.7c0,2,0,3.6,0,5.5c-159,0-317.8,0-476.9,0c0-1.7,0-3.5,0-5.5C416-887.7,574.8-887.7,734-887.7z"/>
<path class="st1" d="M549.5-830.2c-4.2,0-8.2,0-12.1-0.1c-0.5,0-1.2-0.7-1.6-1.2c-7.8-10-15.5-20-23.7-29.9
	c0.4,10.3-1.7,20.7,1.6,31c-3.7,0-7.8,0-11.9,0c3-5.6,2.9-32.4-0.1-37.2c5.5,0,10.9,0,15.8,0c7.8,10.2,15.4,20.2,23.2,30.5
	c1.8-8.6,0.6-27-2-30.5c4.2,0,8.2,0,11.5,0c-0.4,3.6-0.9,7.2-1,10.9c-0.2,7.1-0.1,14.2,0,21.3C549.1-833.8,549.3-832.3,549.5-830.2z
	"/>
<path class="st1" d="M616-867.3c-0.9,2.5-1.7,4.8-2.6,7.4c-7-2.8-13.9-3.9-21.1-3.2c-10.3,1-16.2,8-14.7,17.4
	c0.9,5.6,5.1,9.7,11.7,10.5c3.9,0.5,8,0.5,11.9-0.1c7-1,8.7-4,7.6-11.6c-5.6,0-11.2,0-16.7,0c1.1-5.1,1.6-5.6,6.6-5.7
	c6.5-0.1,13.1,0,19.3,0c0,7,0,13.7,0,20.2c-6.6,1-12.7,2-18.9,2.9c-6.4,1-12.7,0.1-18.7-2c-8.6-3-12.6-8.9-12.5-17.6
	c0.1-8.1,4.9-14.3,13.5-17.4c8.1-2.9,16.4-2.2,24.7-1.7C609.3-868.1,612.4-867.7,616-867.3z"/>
<path class="st1" d="M389.4-868.5c5.2-0.3,10.6,0.5,15.7,3.2c12.5,6.6,13.4,23.5,1.6,31.3c-7.1,4.7-15.1,5.5-23.4,4.6
	c-5.2-0.5-10.3-1.9-14.5-5.2c-8.9-7-9.2-20.7-0.4-27.9C374.4-867.5,381.5-868.8,389.4-868.5z M387.8-835c1,0,2,0.1,3,0
	c9.1-0.8,14.6-6.6,14.3-14.7c-0.3-8.4-5.7-13.1-15.1-13.3c-2.3,0-4.7,0.1-6.9,0.6c-9.3,2.1-14.1,10.9-10.4,19.4
	C375.6-836.5,381.4-835.1,387.8-835z"/>
<path class="st1" d="M649.3-847.2c0,4,0,7.5,0,11.6c12.2-0.7,24.4,1.8,36.6-2.9c-0.9,2.8-1.7,5.2-2.6,8.1c-14.8,0-30,0-45.2,0
	c3-6,2.9-32.4-0.3-37.2c15.1,0,30,0,44.7,0c0.7,2.5,1.4,4.8,2.1,7.4c-11.6-3.8-23.3-1.9-35.1-2.5c0,3.4,0,6.6,0,10
	c8.7,0,17.5,0,26.4,0c-1.6,3.4-3.7,5.8-8.2,5.5C661.7-847.5,655.6-847.2,649.3-847.2z"/>
<path class="st1" d="M469.8-867.7c3.7,0,8.1,0,11.8,0c-0.5,2.9-1.2,5.8-1.4,8.8c-0.2,4.3-0.1,8.7-0.1,13c0,9.1-3.5,13.5-12.3,15.6
	c-7.4,1.7-14.8,1.7-22.1-0.5c-7-2.1-10.2-6.5-10.2-13.8c0-4.8,0.2-9.6-0.1-14.3c-0.2-3-1-5.9-1.5-8.8c3.7,0,8.1,0,13.1,0
	c-3.1,3.3-2.7,7.2-2.7,11c0,3.3,0,6.7,0,10c0,7.5,2.9,10.8,10.3,11.6c2.1,0.2,4.2,0.2,6.3,0c7.3-0.8,10.1-3.9,10.1-11.3
	c0-4.4,0.2-8.9-0.1-13.3C471-862.4,470.3-865,469.8-867.7z"/>
<path class="st1" d="M306.4-867.7c3.6,0,8,0,11.6,0c-0.4,3.4-1.1,6.9-1.2,10.3c-0.2,7.1-0.1,14.2-0.1,21.7
	c10.6-0.5,21.1,1.5,31.4-3.1c-1,3-1.9,5.5-2.8,8.3c-12.9,0-26.2,0-38.7,0C308.2-842.9,308.6-855.2,306.4-867.7z"/>
<path class="st1" d="M893.7-932.1c-1.3,0.5-2.5,1.3-2.9,1c-0.8-0.5-1.4-1.7-1.6-2.7c-0.1-0.6,0.9-1.3,1.4-2
	C891.2-935,891.9-934.2,893.7-932.1z"/>
<path class="st1" d="M886.2-921.2c-1.2,0.9-2,1.9-2.8,1.9c-0.5,0-1.7-1.3-1.6-1.9c0.2-0.8,1.1-1.8,1.9-2
	C884.2-923.3,885.1-922.1,886.2-921.2z"/>
<path class="st1" d="M887.1-928.8c-0.9,0.4-1.8,1.2-2.6,1.1c-0.8-0.1-1.8-1.2-1.9-2c-0.1-0.6,1-2,1.4-2c0.9,0.1,1.6,1,2.4,1.5
	C886.6-929.7,886.9-929.2,887.1-928.8z"/>
<path class="st1" d="M856.9-1006.4c-0.3,1.8-1.2,3-3.2,2.5c-0.5-0.1-0.8-1.1-1.1-1.7c1.2-0.7,2.4-1.4,3.6-2.1
	C856.4-1007.2,856.6-1006.8,856.9-1006.4z"/>
<text transform="matrix(0.7378 0 0 1 303.3848 -772.7708)" class="st1 st2" style="font-size:34.4339px;">SCHENECTADY, NY </text>
<path class="st1" d="M1174,445.3c-6.2-0.1-11.3-2-15.9-5.2c-13-9.2-25.4-19.2-34.2-32.8c-0.5,0-1-0.1-1.5-0.1c-1,4.3-2.5,8.6-2.7,13
	c-0.9,17-1.6,34-2.1,51c-0.4,13.5,2.2,26.6,6.1,39.4c1.7,5.5,0.9,10.4-1.2,15.7c-2.5,6.4-4,13.2-5.9,19.9c-0.5,1.7-0.9,3.3-1.3,5
	c-1.3,5.6-5,7.8-10.5,8c-8.6,0.4-17.1,1.3-25.6,1.5c-6.8,0.1-8.5-2.2-8.2-8.7c0.3-6.1,2.7-11.5,7-15.2c7.7-6.6,9.2-15.1,9.2-24.1
	c-0.1-11.4-1-22.9-2-34.3c-1.6-19.3-3.6-38.6-5.4-57.9c-0.9-9.5-4.3-17.9-10.7-25c-7.9-8.7-14.4-18.2-17-29.9
	c-0.1-0.6-0.4-1.2-0.7-1.7c-0.1-0.2-0.5-0.3-1.1-0.7c-3.8,4.8-5.6,10.2-4.1,16.3c3.1,13.2,1.3,25.9-3.6,38.2
	c-8.6,21.8-17.3,43.7-26.2,65.4c-6,14.9-7.4,29.9-3.6,45.7c1.6,6.6-0.1,12.9-5.7,18c-4.6,4.3-8.2,9.6-12.6,14.2
	c-8.1,8.5-22.5,12-34.2,7c-4-1.7-5.4-4.6-3.3-9c2.5-5.1,4.9-10.6,8.6-14.7c8.3-9.3,11.9-20.4,14-32.3c3.6-21.1,7.7-42.2,10.7-63.4
	c2-14.4,2.7-29.1,3.3-43.7c0.1-2.8-1.9-7-4.2-8.4c-17-10.1-24-26.4-28.8-44.3c-3.4-12.7-4-12.9-17.3-13.2
	c-11.1-0.3-21.9,0.7-32.3,4.8c-3,1.2-6.7,2.1-8-2c-1.3-4,1.7-6.3,5.1-7.3c13.8-4.2,28-5.9,42.3-4.1c6.2,0.8,6.6,0.7,5.4-5.6
	c-2.1-11.6-3.8-23.2-11.2-33c-0.9-1.1,0-4.7,1.3-6c0.9-0.9,4.8-0.8,5.5,0.2c3.3,4.7,7.3,9.5,8.7,14.9c4,15.8,6.8,32,10,48
	c3.2,15.7,9.9,29.1,24.1,37.8c8.2,5,11.3,12.7,10,22c-2.7,19.6-5.7,39.3-8.5,58.9c-2.5,17.3-5,34.6-7.6,51.8
	c-0.6,4.1-1.9,8.1-2.4,12.1c-0.3,2.7-0.1,5.6,0.5,8.2c0.8,3.3,0.4,5.2-3.3,5.8c-5.5,0.8-9.1,4.4-11.7,8.9c-2.7,4.5-1.1,7.3,4.1,7.5
	c8.4,0.2,13.9-3.8,17.7-11.5c1.9-3.9,4.9-7.4,8.1-10.3c3.2-3,4.4-5.8,3.3-10.1c-4.9-18.6-3.2-36.7,4.4-54.5
	c10.8-25.1,20.8-50.5,27.2-77.1c0.8-3.5,0.9-7.8-0.3-11.1c-3-8.4-2.2-16.4,1.8-23.9c4.4-8.1,9.2-16,14.4-23.6
	c13.3-19.5,20.6-41,22.3-64.5c0.8-11.7-2.8-22.6-6.3-33.5c-1.2-3.8-2.9-7.4-3.8-11.3c-0.4-1.7,0.4-3.7,0.7-5.6
	c1.8,0.7,4.5,0.9,5.1,2.1c4.2,8.1,8.6,16.2,11.8,24.8c2.3,6,2.8,12.6,4.1,18.8c3.9-8.3,3.5-20.5-0.7-29.4c-0.7-1.4-0.1-3.5-0.1-5.3
	c1.6,1.1,4,1.9,4.7,3.4c5.5,11.4,5.8,23.3,2.8,35.3c-1.5,6-3.1,12-5.3,17.8c-5.4,14.4-5.3,28.9-1.1,43.5
	c3.4,11.9,8.2,23.2,14.6,33.8c0.4-0.1,0.9-0.2,1.3-0.3c-0.7-3.2-1.2-6.5-2.2-9.6c-7.6-23-7.3-45.8,1.4-68.6
	c5.1-13.5,7.5-27.6,4.6-42.1c-2.1-10.5-7.9-18.5-16.4-24.9c-1.4-1.1-1.9-3.3-2.8-5.1c2,0,4.3-0.6,5.8,0.2
	c13.2,6.9,18.7,18.8,20.8,32.8c2.2,14.6-1.2,28.4-5.6,42.1c-3.6,11.4-7,22.9-6,35c1.7,21,7.8,40.8,18.7,58.9
	c0.9,1.6,2.3,2.8,3.5,4.2c0.4-0.1,0.9-0.3,1.3-0.4c-0.4-2.1-0.7-4.3-1.4-6.4c-6.3-18.1-11.3-36.5-10.6-55.8
	c0.2-6.3,1.6-12.6,2.2-18.9c1.4-15.6,2.7-31.3,4.1-46.9c0.1-1.2,1.1-2.2,1.7-3.3c0.8,1,2.2,1.8,2.4,2.9c3.4,13.5,4.2,27.2,0.9,40.6
	c-7.4,30.3-3.3,59.2,8.6,87.5c0.2,0.6,0.4,1.2,0.6,1.8c0,0.1,0.3,0.1,1.1,0.5c-0.5-4-0.8-7.7-1.6-11.3c-3-14.2-1.6-28.5-0.2-42.7
	c2-20.1,5-40.2,3-60.4c-3.2-31.6-17.4-57.4-43.4-76.3c-1.3-0.9-2-2.7-3-4.1c2,0,4.4-0.7,5.9,0.2c12.3,7.4,22.4,17.3,30.1,29.4
	c13.5,21.3,18.6,44.8,17.3,69.6c-1,19.5-3.6,38.9-5.3,58.4c-1.7,20.2,2,39.6,9.9,58.1c2.3,5.4,6.6,10,10.2,14.8
	c0.7,0.9,2.4,1,3.6,1.5c0.2-1.3,0.8-2.6,0.6-3.9c-2.3-16.5-5.5-32.9-6.7-49.5c-0.8-11.4,1-23.1,2.3-34.6c2.1-18.3,6.3-36.5,6.7-54.8
	c0.6-27.7-6-54-24.1-76.1c-15.9-19.5-36.8-21.9-59.7-16.5c-3.7,0.9-7.3,2.6-11,2.8c-3,0.2-7.4-0.3-9-2.3
	c-15.8-19.1-36.8-22.8-59.6-20.3c-19.7,2.1-39.2,5.9-58.9,8.6c-3.4,0.5-7.2-0.3-10.5-1.4c-1.2-0.4-2.5-3.6-2.1-5
	c0.4-1.5,2.8-3.2,4.5-3.4c14-2.1,27.9-4.3,41.9-5.7c13.7-1.4,27.5-2.7,41.3-2.8c12.5-0.1,24.7,3,35.5,9.4c5.2,3.1,9.6,7.7,13.7,12.2
	c2.4,2.7,4.3,3.6,7.7,2.4c14.4-4.8,29-6.6,44-2.5c19.4,5.4,31.6,18.6,40.1,36.1c6.3,13.2,9.2,27.3,11.4,41.6
	c3.4,22.9-0.2,45.3-4.2,67.7c-6.5,35.8-3.1,70.8,8.2,105.3c0.3,1.1,0.7,2.1,1,3.2C1174.1,442.8,1174,443.6,1174,445.3z
	 M1080.2,550.5c1.3,0.7,2.2,1.5,3,1.4c6.8-0.4,13.6-0.7,20.4-1.6c1.4-0.2,3.5-2.7,3.5-4.2c0.1-9.1,3.8-16.9,7.5-24.9
	c1.2-2.6,1.9-6.4,0.9-9c-5.5-14.3-6.6-29-6-44c0.8-19.5,1.5-39.1,5.3-58.3c1.2-6-0.4-11-4.8-15.6c-12.4-12.9-21.9-27.7-27.6-44.7
	c-3.5-10.2-5.5-20.9-8.1-31.2c-5,9.3-10.4,19.1-15.6,29.1c-0.6,1.1-0.6,2.9-0.2,4.2c3.6,12.4,7.1,24.6,15.5,35
	c6.2,7.5,10.7,16.3,12.5,25.9c1.2,6.7,1.2,13.6,1.9,20.4c2.2,20.5,4.8,41,6.6,61.6c0.9,10.6,0.6,21.3,0.4,32
	c-0.1,3.3-0.7,6.3,1.5,9.4c2.2,3.1,0.1,4.9-3.1,4.6C1086.3,539.8,1083.3,544.7,1080.2,550.5z"/>
<path class="st1" d="M27,169.6c17.9,2.4,35,2.4,52.2-0.8c0,0.9,0,1.4-0.1,1.4c-7,2.9-7.7,8.4-7.6,15.1c0.3,24,0.1,48.1,0.1,72.1
	c0,1.7,0,3.4,0,5.3c26.4-10.8,40-10.5,65.5,0.1c0-1.9,0-3.6,0-5.3c0-25.5,0-50.9,0.2-76.4c0-3.6-1.2-6.1-4.2-7.9
	c-1.7-1-3.3-2.1-5.1-3.2c18.5,0,36.7,0,55.9,0c-11.7,2.6-10.7,11-10.7,19.5c0.1,59.7,0.1,119.3,0,179c0,8-1.2,16.3,8.6,20.9
	c-17.8-3.9-35.1-4.8-52.4,0.7c0.1-1.1,0-1.6,0.1-1.7c6.6-3.1,7.7-8.5,7.6-15.3c-0.2-32.9,0-65.9,0-98.8c0-1.6,0-3.1,0-5.6
	c-21.8,10.2-43.3,10.3-65.5-0.1c0,2.2,0,3.9,0,5.5c0,31.3,0.2,62.7-0.1,94c-0.1,8.8,0.2,16.7,10.2,20.9c-18.4-3.6-36.4-4.2-54.3,0.9
	c0-1.2-0.1-1.7,0-1.8c6.9-3.2,8.2-8.9,8.2-16.1c-0.2-61.1-0.1-122.2-0.1-183.3C35.7,181.4,38,172.9,27,169.6z"/>
<path class="st1" d="M429.4,273.2c9.2,6.7,19.3,13,28.1,20.8c15.8,14,25.2,32.6,33.7,51.5c5,11.1,9.5,22.5,14.6,33.6
	c2,4.4,4.9,8.4,8.2,13.8c-5.8-0.7-10.9-0.7-15.8-1.9c-26.6-6.7-44.5-23.5-54.9-48.5c-6-14.3-11-29.1-17.4-43.3
	c-4.8-10.6-11.2-20.5-16.7-30.3c5.3-0.6,11.9-0.9,18.3-2.3c16.9-3.8,26.9-15.9,28.6-33.2c1.5-15.3-0.6-29.8-9.4-42.8
	c-10-14.8-25.5-17.1-40-14.3c-1,0.2-2,2-2.5,3.2c-0.4,1.1-0.1,2.5-0.1,3.8c0,49.5,0,99,0,148.5c0,9.9-0.2,19.7-0.3,29.6
	c-0.1,9.5,2.9,17.5,10.9,23.1c0.5,0.4,1,0.8,1.4,1.3c0.2,0.2,0.3,0.6,0.9,2.1c-2.5-0.5-4.4-0.7-6.1-1.3c-16.4-5.6-33-8.2-49.8-1.5
	c-1.6,0.6-3.3,1-5.3,1.6c0.3-1.2,0.3-1.7,0.4-1.7c11.4-6.4,13.7-16.9,13.7-28.8c-0.1-53.2-0.1-106.3,0-159.5
	c0-11.1-2.5-20.5-13.1-26.1c-0.5-0.2-0.7-0.9-1.4-1.9c1.5-0.1,2.7-0.6,3.5-0.3c15.7,6.5,31.5,3.8,47.4,1.3c12.8-2,25.6-5.4,38.7-1.5
	c18.1,5.3,32.8,15.2,42.7,31.5c12.1,19.9,7.6,43.6-11,57.7c-13.4,10.2-29,13.9-45.3,15.7C430.4,273.2,429.4,273.2,429.4,273.2z"/>
<path class="st1" d="M307,199.8c-0.7-2.6-1.2-4.9-2-8c2.1,0.7,4,1,5.3,2c3.1,2.4,6.5,4.8,8.9,7.8c20,25.5,32.3,54.3,31.6,86.9
	c-0.7,34.9-15.3,63.2-47.5,79.6c-39.7,20.2-87.8,4.3-108.5-35.6c-19.8-38.2-17.9-95.9,24.9-130.8c13.2-10.8,28-18.1,45.3-19.3
	c14.3-1,26.5,3.8,36.7,13.9c1.1,1.1,2.3,2.2,3.5,3.2C305.3,199.7,305.7,199.6,307,199.8z M248.3,262.8c1.2,0.9,2,1.4,2.7,2
	c11.8,9.2,25.9,9.1,36.9-1c22.9-20.9,18-49.6,0.5-66.1c-8.6-8.1-19.1-10.2-30-5c-5.2,2.5-10.2,6-14.2,10.1
	c-14.5,15-20.3,34.1-23.4,54.1c-3.1,20.1-2.3,40.3,1.2,60.3c2.2,13.1,6.3,25.6,15.1,36c13.3,15.7,34.3,18.7,51.4,7.3
	c9.2-6.1,15.6-14.5,19.2-24.8c6.3-18,8-36.9,8.3-55.8c0.1-9-0.7-18-1.1-27.9c-1.1,1-1.3,1.1-1.3,1.2c-0.6,1.8-1.2,3.6-1.9,5.4
	c-6.3,16.4-16.5,28.7-35,31.1C259.1,292.2,246.1,278.7,248.3,262.8z"/>
<path class="st1" d="M562.2,320.4c-3.9,0.9-7.7,1.4-11.3,2.7c-18,6.8-23.7,28.1-11.4,43.7c11.4,14.4,26.9,19.4,44.7,16.5
	c17.5-2.8,29.4-12.7,35.1-29.7c1.7-5.3,1.3-10.1-1.7-15c-9.1-15-21.6-27-34.2-38.9c-12.7-12-25.5-24-37.5-36.7
	c-10.2-10.9-17.9-23.6-19.7-38.9c-2-16.9,3.4-31.8,13.4-45c6.1-8,15.3-11.4,25-12.6c15.6-1.8,30.8,0.2,44.6,8.4
	c2.5,1.5,4.6,4.2,5.9,6.8c5.7,11.5,10.9,23.3,16.4,34.9c0.6,1.4,1.3,2.7,1.2,4.8c-1.9-1.8-3.8-3.5-5.5-5.3
	c-8.2-8.4-15.9-17.5-24.8-25c-6.3-5.3-14-9.4-21.7-12.4c-14.4-5.6-25.9,2.5-27.4,17.9c-1,10,2.4,18,9.5,24.8
	c10.7,10.2,21.5,20.4,31.9,30.9c16.2,16.3,31.4,33.4,41,54.6c10.5,23.2,5.2,49.4-13.8,66c-16.9,14.8-36.3,22.3-59.3,18.5
	c-27.9-4.5-52.3-32.5-51.3-59.3c0.9-22.4,23.6-35.1,42.5-23.7C558.2,311.5,561.7,315,562.2,320.4z"/>
<path class="st1" d="M883.7,221.4c-3.6-3.6-7.3-7.2-10.9-10.8c-7.2-7.2-13.9-15.1-21.8-21.2c-6.4-4.9-14.1-8.6-21.7-11.4
	c-10.4-3.9-20,1.5-23.6,12.4c-3.4,10.4-2.4,20.3,5.6,28.4c13.6,13.8,27.7,27.1,41.3,41c12.8,13.1,24.2,27.4,32.5,43.9
	c13.4,26.8,6.8,55.4-17.1,73.5c-14,10.6-29.5,16.4-47.4,15.5c-26.3-1.3-53-23.9-57.5-49.8c-1-5.9-0.7-12.5,0.9-18.4
	c5.1-18.9,27.1-26.1,42.7-14.3c3.1,2.3,5,6.1,8,9.8c-5.2,1.2-9,1.7-12.4,3c-17.8,6.4-23.9,27.4-12.1,43.2
	c11.6,15.6,28,20.4,46.6,16.9c18-3.4,29.8-14.4,34.1-32.4c0.8-3.3-0.2-7.7-1.8-10.8c-7.2-13.5-17.9-24.2-28.9-34.6
	c-12.6-11.9-25.4-23.6-37.7-35.8c-10.7-10.8-19.9-22.8-23.9-37.9c-5.2-19.7,0.4-37.1,12.3-52.7c5.7-7.5,14.5-10.8,23.7-12
	c16.5-2.1,32.3,0.1,46.8,8.9c1.5,0.9,3.2,2.3,3.9,3.9c6.3,13.2,12.4,26.4,18.5,39.7c0.2,0.5,0.4,1.1,0.5,1.6
	C884.1,221.2,883.9,221.3,883.7,221.4z"/>
<path class="st1" d="M757.5,193.4c-10.2,2.1-20.7,3.9-30.9,6.3c-13.9,3.3-27.4,2.9-40.5-3.3c-0.5-0.3-1.2-0.3-2.1-0.5
	c0,23.4,0,46.6,0,70.3c2.3-1.2,4.3-2.4,6.4-3.4c7.3-3.4,14.9-3,22.5-1.7c9.3,1.6,18.6,3.7,27.8,5.6c-5.7,8.9-18.4,13.6-30,10.8
	c-7.3-1.7-14.4-3.7-21.7-5.5c-1.5-0.4-3-0.6-5-1c0,29.5,0,58.5,0,88.1c4.9-1,9.6-2.1,14.3-3.1c13.7-2.9,27.1-1.7,40.5,2.3
	c9.9,3,20,5.6,30,8.4c-5.6,4.9-12.5,7.4-20.2,8.5c-12.5,1.7-24.6-1.1-36.8-3.4c-11.4-2.1-22.8-4.4-34.2-5.8
	c-11.1-1.3-22,0.9-32.6,5.2c0.5-0.7,0.9-1.4,1.5-1.9c4.7-4.1,7-9.5,7-15.6c0.1-51.7,0.1-103.4-0.2-155.1c0-2.9-3-5.9-5-8.6
	c-0.9-1.3-2.7-2.1-3.4-2.6c9,0.6,18.5,2.2,28,1.6c12-0.8,23.8-3.5,35.7-5.2c14.6-2.1,28.9-1.7,42.3,5.2c1.7,0.9,3.3,1.9,4.9,3
	C756.7,192.7,757.4,193.3,757.5,193.4z"/>
<path class="st1" d="M265.2,97.6c-13.4,3.2-26,6.4-38.6,9.3c-3.7,0.8-3.3,3.3-1.6,4.7c2.4,1.9,5.7,3.7,8.7,3.9
	c8.7,0.6,16.3-3.2,23.7-7.4c1.4-0.8,2.7-1.7,4.5-2.9c0,3.9,0,7.4,0,11.9c-10.1,2.6-20.5,6.3-31.2,7.6c-12.4,1.5-19.1-6.4-18.2-19.1
	c1-14.1,10-24.9,24.4-28.9c3.2-0.9,6.5-1.5,9.8-1.8c9.9-1,16.1,3.7,17.8,13.6C265,91.7,265,94.9,265.2,97.6z M253.6,92.6
	c-1.1-6.3-3.6-8.9-8.9-8.9c-6.6,0.1-12.6,2.2-17,7.3c-1.9,2.2-2.8,5.2-4.1,7.8c0.4,0.3,0.8,0.6,1.2,0.9
	C234.4,97.3,244,95,253.6,92.6z"/>
<path class="st1" d="M148,83.4c5-1.2,9.8-2.4,14.7-3.7c0,7.1,0,13.8,0,21.3c1.4-1.1,2.3-1.8,3.2-2.6c6.9-6.3,15.2-9.1,24.4-9.1
	c6.5,0,10.6,3.4,11.3,9.9c0.7,6.3,0.3,12.7,0.8,19c0.3,4,1.4,8,2.2,12.6c-4.7,1.2-10.5,2.6-16.8,4.1c5.9-10.2,3.9-20.6,3-30.9
	c-0.4-4.3-3.6-6.2-7.8-6.1c-11.9,0.3-20.3,8.8-20.5,20.6c-0.1,3.5-0.3,7,0.1,10.5c0.4,3.6,1.6,7.1,2.5,11.3
	c-4.8,1.2-10.6,2.6-16.8,4.2C153.5,133.4,153.4,91,148,83.4z"/>
<path class="st1" d="M82,99c19.8-4.8,40-9.7,59.9-14.5c1,4,1.9,7.8,2.6,10.8c-8.6,1-17.1,1.9-26.3,2.9c0,3.8,0,6.7,0,9.7
	c0,10.8-0.2,21.6,0.1,32.4c0.1,3.5,1.6,7.1,2.5,10.8c-5.1,1.2-11.3,2.8-16.6,4c0.6-5.5,1.5-10.9,1.6-16.4c0.3-12,0.1-24.1,0.1-37.5
	c-9.4,3.5-17.9,6.7-26.4,9.8C80.2,107.8,81,103.8,82,99z"/>
<path class="st1" d="M1151.9,287c-0.3-20.5-6.8-38.9-17.6-55.7c-5-7.8-11.5-14.6-17-22.1c-1-1.3-0.7-3.5-1.1-5.3
	c1.8-0.2,4.3-1.2,5.4-0.3c2.9,2.1,5.7,4.6,7.8,7.5c13.2,17.7,23.7,36.8,27.8,58.8c2.2,11.5,0.8,22.7-0.9,34
	c-2.1,14.6-3.7,29.2-5.6,43.8c-0.2,1.3-1.4,2.5-2.1,3.7c-1.1-1.2-3-2.3-3.1-3.5c-0.3-3.8,0-7.6,0.4-11.3
	C1147.9,320.1,1149.9,303.6,1151.9,287z"/>
<path class="st1" d="M970.1,211.3c2,5,0.6,9.8-3.5,12.8C963.6,219.7,965.1,213.8,970.1,211.3z"/>
<path class="st1" d="M1018.4,355.2c-1.9-2.4-4-3.9-4-5.4c0-1.2,2.6-3.5,3.9-3.3c1.6,0.1,3.6,2.1,4.1,3.7
	C1022.7,351,1020.4,352.8,1018.4,355.2z"/>
<path class="st1" d="M1027.6,362c-2.4,1.7-4.1,3.7-5.4,3.5c-1.3-0.2-3.3-2.6-3.2-4c0.1-1.4,2.3-3.8,3.6-3.7
	C1023.9,357.8,1025.3,360,1027.6,362z"/>
<path class="st1" d="M1039.8,346.5c-2.7,1.7-4.4,3.5-5.4,3.2c-1.5-0.4-2.6-2.4-3.8-3.7c1.3-1.2,2.5-3.3,3.8-3.3
	C1035.7,342.5,1037.2,344.5,1039.8,346.5z"/>
<path class="st1" d="M967.9,235.4c2.2-1.6,3.8-3,5.6-3.9c0.3-0.2,2.3,1.9,2.2,2c-1.4,2.1-3.1,4-4.6,5.9
	C970.2,238.4,969.5,237.4,967.9,235.4z"/>
<path class="st1" d="M1015.1,326c-2.3,1.5-3.8,2.9-4.2,2.7c-1.7-1.3-3.2-3-4.7-4.5c0.9-0.9,2.2-2.6,2.6-2.4
	C1010.7,322.6,1012.4,324,1015.1,326z"/>
<path class="st1" d="M109.2,504.2c0-2.6,0-5.1,0-7.9c227.4,0,454.6,0,682.1,0c0,2.5,0,5,0,7.9C564,504.2,336.7,504.2,109.2,504.2z"
	/>
<path class="st1" d="M791.4,401c0,2.8,0,5.2,0,7.9c-227.3,0-454.5,0-682.1,0c0-2.5,0-5.1,0-7.9C336.6,401,563.8,401,791.4,401z"/>
<path class="st1" d="M527.5,483.2c-6,0-11.7,0.1-17.4-0.1c-0.8,0-1.7-1-2.3-1.7c-11.1-14.3-22.2-28.6-33.9-42.8
	c0.6,14.8-2.5,29.7,2.3,44.3c-5.3,0-11.1,0-17.1,0c4.3-8.1,4.2-46.3-0.2-53.3c7.8,0,15.5,0,22.6,0c11.1,14.6,22,28.9,33.2,43.6
	c2.6-12.3,0.9-38.6-2.8-43.6c6,0,11.7,0,16.5,0c-0.5,5.1-1.3,10.3-1.5,15.6c-0.2,10.2-0.1,20.3,0,30.5
	C527,478.1,527.3,480.3,527.5,483.2z"/>
<path class="st1" d="M622.6,430.2c-1.2,3.5-2.4,6.9-3.7,10.6c-10-4-19.9-5.6-30.2-4.6c-14.7,1.4-23.2,11.5-21,24.9
	c1.3,8,7.2,13.8,16.8,15.1c5.6,0.7,11.5,0.7,17.1-0.1c10-1.5,12.4-5.7,10.9-16.6c-8,0-16,0-23.9,0c1.6-7.3,2.2-8,9.4-8.1
	c9.4-0.1,18.7,0,27.6,0c0,10.1,0,19.6,0,28.8c-9.4,1.5-18.2,2.8-27.1,4.2c-9.2,1.4-18.2,0.2-26.8-2.8c-12.3-4.3-18-12.8-17.9-25.2
	c0.1-11.6,7-20.5,19.4-24.9c11.6-4.2,23.5-3.2,35.4-2.5C613.1,429.1,617.5,429.7,622.6,430.2z"/>
<path class="st1" d="M298.6,428.4c7.5-0.4,15.2,0.8,22.4,4.6c17.9,9.5,19.2,33.6,2.3,44.7c-10.1,6.7-21.6,7.8-33.4,6.6
	c-7.5-0.8-14.7-2.7-20.8-7.5c-12.8-10-13.1-29.6-0.6-39.9C277.1,429.9,287.3,428.1,298.6,428.4z M296.3,476.3c1.4,0,2.9,0.1,4.3,0
	c13-1.1,20.9-9.4,20.5-21c-0.5-12-8.1-18.8-21.5-19c-3.3-0.1-6.7,0.2-9.9,0.9c-13.3,2.9-20.1,15.6-14.9,27.7
	C278.8,474.2,287.2,476.3,296.3,476.3z"/>
<path class="st1" d="M670.2,459c0,5.7,0,10.7,0,16.6c17.4-1,34.9,2.6,52.4-4.2c-1.3,3.9-2.4,7.5-3.8,11.6c-21.2,0-42.9,0-64.7,0
	c4.3-8.5,4.1-46.3-0.4-53.1c21.5,0,42.9,0,63.9,0c1,3.5,1.9,6.9,3,10.7c-16.6-5.4-33.3-2.7-50.3-3.6c0,4.9,0,9.4,0,14.4
	c12.5,0,25.1,0,37.8,0c-2.3,4.9-5.3,8.3-11.8,7.9C687.9,458.6,679.4,459,670.2,459z"/>
<path class="st1" d="M413.6,429.7c5.3,0,11.6,0,16.9,0c-0.7,4.2-1.7,8.3-2,12.6c-0.3,6.2-0.1,12.4-0.1,18.6c0,13-5,19.4-17.6,22.2
	c-10.5,2.4-21.1,2.4-31.5-0.8c-10-3-14.5-9.4-14.6-19.7c0-6.8,0.3-13.7-0.1-20.5c-0.2-4.2-1.4-8.4-2.2-12.5c5.3,0,11.6,0,18.7,0
	c-4.4,4.7-3.8,10.3-3.8,15.7c0,4.8,0,9.5,0,14.3c0,10.7,4.2,15.5,14.8,16.6c3,0.3,6.1,0.3,9,0c10.5-1.1,14.5-5.6,14.5-16.2
	c0-6.4,0.2-12.7-0.1-19.1C415.3,437.2,414.3,433.5,413.6,429.7z"/>
<path class="st1" d="M179.9,429.7c5.1,0,11.4,0,16.6,0c-0.6,4.9-1.6,9.8-1.8,14.8c-0.3,10.1-0.1,20.3-0.1,31.1
	c15.2-0.8,30.1,2.2,44.9-4.4c-1.5,4.3-2.7,7.9-4,11.9c-18.4,0-37.4,0-55.4,0C182.5,465.1,183,447.5,179.9,429.7z"/>
<path class="st1" d="M1019.8,337.5c-1.8,0.7-3.5,1.9-4.2,1.4c-1.2-0.7-2.1-2.4-2.3-3.8c-0.1-0.8,1.2-1.9,2-2.9
	C1016.3,333.3,1017.3,334.5,1019.8,337.5z"/>
<path class="st1" d="M1009.1,353.1c-1.7,1.3-2.8,2.6-4,2.7c-0.8,0.1-2.5-1.9-2.3-2.7c0.2-1.2,1.6-2.6,2.8-2.9
	C1006.2,350.1,1007.4,351.8,1009.1,353.1z"/>
<path class="st1" d="M1010.4,342.3c-1.3,0.6-2.6,1.7-3.8,1.5c-1.1-0.2-2.5-1.7-2.8-2.8c-0.2-0.8,1.4-2.9,2-2.9
	c1.2,0.1,2.3,1.4,3.5,2.1C1009.7,341,1010,341.6,1010.4,342.3z"/>
<path class="st1" d="M967.1,231.3c-0.4,2.5-1.6,4.3-4.6,3.6c-0.7-0.2-1.1-1.6-1.6-2.4c1.7-1,3.5-2,5.2-3
	C966.5,230.2,966.8,230.7,967.1,231.3z"/>
<text transform="matrix(0.7378 0 0 1 175.5777 565.3968)" class="st1 st2 st3">SCHENECTADY, NY </text>
<path d="M1001.8-1430.3c-4.4-0.1-7.9-1.4-11.1-3.7c-9.1-6.5-17.7-13.4-23.9-23c-0.3,0-0.7-0.1-1-0.1c-0.7,3-1.8,6-1.9,9.1
	c-0.7,11.9-1.1,23.8-1.5,35.7c-0.3,9.4,1.5,18.6,4.2,27.5c1.2,3.8,0.6,7.3-0.9,11c-1.8,4.5-2.8,9.2-4.2,13.9
	c-0.3,1.2-0.6,2.3-0.9,3.5c-0.9,3.9-3.5,5.4-7.4,5.6c-6,0.3-12,0.9-17.9,1.1c-4.8,0.1-5.9-1.5-5.7-6.1c0.2-4.3,1.9-8.1,4.9-10.6
	c5.4-4.6,6.4-10.6,6.4-16.8c-0.1-8-0.7-16-1.4-24c-1.2-13.5-2.5-27-3.8-40.5c-0.6-6.6-3-12.5-7.5-17.4c-5.5-6.1-10-12.7-11.9-20.9
	c-0.1-0.4-0.3-0.8-0.5-1.2c-0.1-0.2-0.4-0.2-0.8-0.5c-2.7,3.4-3.9,7.1-2.9,11.4c2.2,9.2,0.9,18.1-2.5,26.7
	c-6,15.3-12.1,30.5-18.3,45.7c-4.2,10.4-5.2,20.9-2.5,32c1.1,4.6-0.1,9-4,12.6c-3.2,3-5.8,6.7-8.8,9.9c-5.7,5.9-15.7,8.4-23.9,4.9
	c-2.8-1.2-3.7-3.2-2.3-6.3c1.7-3.6,3.4-7.4,6-10.3c5.8-6.5,8.4-14.2,9.8-22.6c2.5-14.8,5.4-29.5,7.5-44.3
	c1.4-10.1,1.9-20.3,2.3-30.5c0.1-2-1.3-4.9-3-5.9c-11.9-7.1-16.8-18.5-20.1-31c-2.4-8.9-2.8-9-12.1-9.2c-7.7-0.2-15.3,0.5-22.6,3.3
	c-2.1,0.8-4.7,1.5-5.6-1.4c-0.9-2.8,1.2-4.4,3.5-5.1c9.7-2.9,19.5-4.2,29.6-2.9c4.4,0.5,4.6,0.5,3.8-3.9c-1.5-8.1-2.6-16.2-7.8-23.1
	c-0.6-0.8,0-3.3,0.9-4.2c0.6-0.7,3.4-0.5,3.9,0.2c2.3,3.3,5.1,6.7,6.1,10.4c2.8,11.1,4.7,22.3,7,33.5c2.2,11,6.9,20.3,16.9,26.4
	c5.7,3.5,7.9,8.9,7,15.4c-1.9,13.7-4,27.5-6,41.2c-1.8,12.1-3.5,24.2-5.3,36.2c-0.4,2.8-1.3,5.6-1.6,8.5c-0.2,1.9-0.1,3.9,0.4,5.7
	c0.6,2.3,0.3,3.7-2.3,4.1c-3.8,0.6-6.3,3.1-8.2,6.2c-1.9,3.2-0.7,5.1,2.9,5.2c5.9,0.2,9.7-2.7,12.3-8c1.3-2.7,3.4-5.2,5.7-7.2
	c2.2-2.1,3.1-4.1,2.3-7c-3.4-13-2.3-25.7,3.1-38.1c7.5-17.5,14.5-35.3,19-53.9c0.6-2.5,0.6-5.4-0.2-7.8c-2.1-5.9-1.5-11.5,1.3-16.7
	c3.1-5.7,6.4-11.2,10.1-16.5c9.3-13.6,14.4-28.7,15.6-45.1c0.6-8.2-1.9-15.8-4.4-23.4c-0.9-2.6-2-5.2-2.7-7.9
	c-0.3-1.2,0.3-2.6,0.5-3.9c1.2,0.5,3.1,0.6,3.6,1.5c3,5.7,6,11.4,8.2,17.3c1.6,4.2,2,8.8,2.9,13.2c2.7-5.8,2.5-14.3-0.5-20.5
	c-0.5-1-0.1-2.4-0.1-3.7c1.1,0.8,2.8,1.3,3.3,2.4c3.8,7.9,4,16.3,2,24.7c-1,4.2-2.2,8.4-3.7,12.4c-3.8,10.1-3.7,20.2-0.8,30.4
	c2.4,8.3,5.8,16.2,10.2,23.6c0.3-0.1,0.6-0.2,0.9-0.2c-0.5-2.3-0.8-4.6-1.5-6.7c-5.3-16.1-5.1-32,1-47.9c3.6-9.5,5.2-19.3,3.2-29.4
	c-1.5-7.4-5.6-12.9-11.5-17.4c-1-0.7-1.3-2.3-1.9-3.5c1.4,0,3-0.4,4.1,0.1c9.2,4.8,13.1,13.2,14.5,23c1.5,10.2-0.9,19.9-3.9,29.5
	c-2.5,8-4.9,16-4.2,24.5c1.2,14.7,5.4,28.5,13,41.2c0.7,1.1,1.6,2,2.5,3c0.3-0.1,0.6-0.2,0.9-0.3c-0.3-1.5-0.5-3-0.9-4.4
	c-4.4-12.7-7.9-25.5-7.4-39c0.1-4.4,1.1-8.8,1.5-13.2c1-10.9,1.9-21.9,2.9-32.8c0.1-0.8,0.8-1.6,1.2-2.3c0.6,0.7,1.5,1.3,1.7,2.1
	c2.4,9.4,2.9,19,0.6,28.4c-5.2,21.2-2.3,41.4,6,61.2c0.2,0.4,0.3,0.8,0.4,1.2c0,0.1,0.2,0.1,0.8,0.4c-0.4-2.8-0.6-5.4-1.1-7.9
	c-2.1-10-1.1-19.9-0.1-29.9c1.4-14,3.5-28.1,2.1-42.2c-2.2-22.1-12.2-40.1-30.3-53.3c-0.9-0.7-1.4-1.9-2.1-2.9
	c1.4,0,3.1-0.5,4.1,0.1c8.6,5.2,15.6,12.1,21,20.6c9.4,14.9,13,31.4,12.1,48.7c-0.7,13.6-2.5,27.2-3.7,40.8
	c-1.2,14.1,1.4,27.7,6.9,40.6c1.6,3.8,4.6,7,7.1,10.3c0.5,0.6,1.7,0.7,2.5,1.1c0.2-0.9,0.6-1.8,0.4-2.7c-1.6-11.5-3.9-23-4.7-34.6
	c-0.5-8,0.7-16.2,1.6-24.2c1.5-12.8,4.4-25.5,4.7-38.3c0.5-19.4-4.2-37.7-16.8-53.2c-11.1-13.6-25.7-15.3-41.7-11.5
	c-2.6,0.6-5.1,1.8-7.7,2c-2.1,0.1-5.2-0.2-6.3-1.6c-11-13.4-25.8-15.9-41.7-14.2c-13.8,1.5-27.4,4.1-41.2,6c-2.4,0.3-5-0.2-7.3-1
	c-0.9-0.3-1.8-2.5-1.5-3.5c0.3-1,1.9-2.2,3.1-2.4c9.8-1.5,19.5-3,29.3-4c9.6-1,19.2-1.9,28.9-2c8.7,0,17.3,2.1,24.8,6.6
	c3.6,2.2,6.7,5.4,9.6,8.5c1.7,1.9,3,2.5,5.4,1.7c10.1-3.4,20.3-4.6,30.8-1.7c13.6,3.8,22.1,13,28,25.3c4.4,9.2,6.4,19.1,7.9,29.1
	c2.4,16-0.1,31.7-3,47.3c-4.6,25.1-2.2,49.5,5.7,73.6c0.2,0.7,0.5,1.5,0.7,2.2C1001.9-1432,1001.8-1431.4,1001.8-1430.3z
	 M936.3-1356.7c0.9,0.5,1.5,1,2.1,1c4.8-0.3,9.5-0.5,14.2-1.1c1-0.1,2.5-1.9,2.5-2.9c0.1-6.4,2.6-11.8,5.2-17.4
	c0.9-1.8,1.3-4.5,0.6-6.3c-3.9-10-4.6-20.3-4.2-30.8c0.6-13.7,1-27.3,3.7-40.8c0.8-4.2-0.3-7.7-3.4-10.9c-8.6-9-15.3-19.4-19.3-31.2
	c-2.4-7.1-3.8-14.6-5.7-21.8c-3.5,6.5-7.3,13.4-10.9,20.3c-0.4,0.8-0.4,2-0.1,2.9c2.5,8.6,5,17.2,10.9,24.4
	c4.3,5.3,7.5,11.4,8.7,18.1c0.8,4.7,0.8,9.5,1.3,14.3c1.5,14.4,3.4,28.7,4.6,43.1c0.6,7.4,0.4,14.9,0.3,22.3c-0.1,2.3-0.5,4.4,1,6.6
	c1.5,2.2,0.1,3.4-2.2,3.2C940.6-1364.2,938.5-1360.8,936.3-1356.7z"/>
<path d="M199.9-1623c12.5,1.7,24.5,1.7,36.5-0.6c0,0.6,0,1-0.1,1c-4.9,2-5.4,5.9-5.3,10.6c0.2,16.8,0.1,33.6,0.1,50.4
	c0,1.2,0,2.4,0,3.7c18.5-7.6,28-7.4,45.8,0.1c0-1.3,0-2.5,0-3.7c0-17.8,0-35.6,0.1-53.4c0-2.5-0.9-4.3-3-5.5
	c-1.2-0.7-2.3-1.5-3.5-2.3c12.9,0,25.6,0,39.1,0c-8.2,1.8-7.5,7.7-7.5,13.6c0.1,41.7,0.1,83.4,0,125.2c0,5.6-0.8,11.4,6,14.6
	c-12.5-2.7-24.5-3.4-36.6,0.5c0-0.8,0-1.1,0.1-1.2c4.6-2.2,5.4-5.9,5.3-10.7c-0.2-23,0-46.1,0-69.1c0-1.1,0-2.2,0-3.9
	c-15.3,7.1-30.3,7.2-45.8-0.1c0,1.5,0,2.7,0,3.8c0,21.9,0.1,43.8-0.1,65.8c-0.1,6.1,0.2,11.7,7.1,14.6c-12.8-2.5-25.4-3-38,0.6
	c0-0.9-0.1-1.2,0-1.2c4.8-2.3,5.7-6.2,5.7-11.3c-0.2-42.7-0.1-85.4-0.1-128.2C205.9-1614.8,207.6-1620.7,199.9-1623z"/>
<path d="M481.2-1550.6c6.4,4.7,13.5,9.1,19.7,14.5c11,9.8,17.6,22.8,23.6,36c3.5,7.8,6.7,15.7,10.2,23.5c1.4,3.1,3.4,5.9,5.7,9.7
	c-4-0.5-7.6-0.5-11-1.3c-18.6-4.7-31.1-16.5-38.4-33.9c-4.2-10-7.7-20.4-12.2-30.2c-3.4-7.4-7.8-14.3-11.7-21.2
	c3.7-0.4,8.3-0.6,12.8-1.6c11.8-2.6,18.8-11.1,20-23.2c1-10.7-0.4-20.9-6.6-29.9c-7-10.3-17.9-12-28-10c-0.7,0.1-1.4,1.4-1.7,2.3
	c-0.3,0.8-0.1,1.8-0.1,2.6c0,34.6,0,69.2,0,103.8c0,6.9-0.2,13.8-0.2,20.7c-0.1,6.6,2,12.2,7.6,16.1c0.4,0.3,0.7,0.6,1,0.9
	c0.1,0.2,0.2,0.4,0.6,1.4c-1.7-0.4-3-0.5-4.2-0.9c-11.5-3.9-23-5.7-34.8-1c-1.1,0.4-2.3,0.7-3.7,1.1c0.2-0.8,0.2-1.2,0.3-1.2
	c8-4.5,9.6-11.8,9.6-20.2c-0.1-37.2-0.1-74.3,0-111.5c0-7.8-1.7-14.3-9.1-18.2c-0.3-0.2-0.5-0.6-1-1.3c1.1-0.1,1.9-0.4,2.5-0.2
	c11,4.5,22,2.6,33.2,0.9c8.9-1.4,17.9-3.8,27.1-1.1c12.6,3.7,22.9,10.6,29.8,22c8.5,13.9,5.3,30.5-7.7,40.4
	c-9.4,7.1-20.3,9.7-31.7,11C481.9-1550.6,481.2-1550.6,481.2-1550.6z"/>
<path d="M395.6-1601.9c-0.5-1.8-0.9-3.4-1.4-5.6c1.5,0.5,2.8,0.7,3.7,1.4c2.2,1.7,4.5,3.3,6.2,5.5c14,17.8,22.6,38,22.1,60.8
	c-0.5,24.4-10.7,44.2-33.2,55.7c-27.8,14.1-61.4,3-75.9-24.9c-13.8-26.7-12.5-67,17.4-91.5c9.2-7.5,19.6-12.7,31.7-13.5
	c10-0.7,18.5,2.7,25.6,9.7c0.8,0.8,1.6,1.5,2.5,2.2C394.4-1602,394.7-1602,395.6-1601.9z M354.6-1557.8c0.8,0.6,1.4,1,1.9,1.4
	c8.2,6.4,18.1,6.4,25.8-0.7c16-14.6,12.6-34.7,0.3-46.2c-6-5.6-13.4-7.1-21-3.5c-3.6,1.7-7.1,4.2-9.9,7.1
	c-10.2,10.5-14.2,23.8-16.3,37.9c-2.1,14.1-1.6,28.2,0.8,42.1c1.6,9.2,4.4,17.9,10.5,25.2c9.3,11,24,13.1,36,5.1
	c6.4-4.3,10.9-10.1,13.4-17.3c4.4-12.6,5.6-25.8,5.8-39c0.1-6.3-0.5-12.6-0.8-19.5c-0.8,0.7-0.9,0.8-0.9,0.9
	c-0.4,1.3-0.8,2.5-1.3,3.8c-4.4,11.5-11.5,20.1-24.5,21.8C362.1-1537.3,353.1-1546.7,354.6-1557.8z"/>
<path d="M574-1517.6c-2.7,0.6-5.4,1-7.9,1.9c-12.6,4.7-16.6,19.6-8,30.6c7.9,10.1,18.8,13.5,31.2,11.6c12.2-1.9,20.6-8.9,24.5-20.8
	c1.2-3.7,0.9-7.1-1.2-10.5c-6.4-10.5-15.1-18.8-23.9-27.2c-8.9-8.4-17.8-16.7-26.2-25.6c-7.1-7.6-12.5-16.5-13.8-27.2
	c-1.4-11.8,2.4-22.2,9.4-31.4c4.2-5.6,10.7-8,17.4-8.8c10.9-1.3,21.6,0.2,31.2,5.9c1.7,1,3.2,2.9,4.1,4.8c4,8.1,7.6,16.3,11.4,24.4
	c0.4,1,0.9,1.9,0.9,3.3c-1.3-1.2-2.6-2.4-3.9-3.7c-5.8-5.9-11.1-12.2-17.4-17.5c-4.4-3.7-9.8-6.5-15.2-8.6
	c-10-3.9-18.1,1.7-19.2,12.5c-0.7,7,1.7,12.6,6.7,17.4c7.5,7.1,15,14.2,22.3,21.6c11.3,11.4,21.9,23.4,28.7,38.2
	c7.3,16.2,3.6,34.5-9.7,46.2c-11.8,10.4-25.4,15.6-41.4,13c-19.5-3.2-36.6-22.7-35.8-41.4c0.6-15.6,16.5-24.5,29.7-16.5
	C571.3-1523.8,573.7-1521.4,574-1517.6z"/>
<path d="M798.8-1586.8c-2.5-2.5-5.1-5.1-7.6-7.6c-5-5-9.7-10.5-15.3-14.8c-4.5-3.5-9.9-6-15.2-8c-7.2-2.7-14,1.1-16.5,8.7
	c-2.4,7.2-1.7,14.2,3.9,19.8c9.5,9.7,19.4,19,28.9,28.7c9,9.2,16.9,19.2,22.7,30.7c9.4,18.7,4.7,38.8-11.9,51.4
	c-9.8,7.4-20.7,11.4-33.1,10.8c-18.4-0.9-37-16.7-40.2-34.8c-0.7-4.1-0.5-8.8,0.6-12.8c3.5-13.2,19-18.3,29.9-10
	c2.1,1.6,3.5,4.2,5.6,6.9c-3.6,0.8-6.3,1.2-8.7,2.1c-12.4,4.5-16.7,19.1-8.4,30.2c8.1,10.9,19.6,14.2,32.6,11.8
	c12.6-2.4,20.8-10,23.8-22.6c0.6-2.3-0.1-5.4-1.3-7.6c-5-9.4-12.5-16.9-20.2-24.2c-8.8-8.4-17.8-16.5-26.3-25.1
	c-7.5-7.5-13.9-15.9-16.7-26.5c-3.6-13.8,0.3-25.9,8.6-36.8c4-5.3,10.2-7.6,16.6-8.4c11.5-1.5,22.6,0.1,32.7,6.3
	c1.1,0.7,2.2,1.6,2.7,2.7c4.4,9.2,8.6,18.5,12.9,27.7c0.2,0.4,0.3,0.8,0.4,1.1C799.1-1587,799-1586.9,798.8-1586.8z"/>
<path d="M710.6-1606.4c-7.2,1.4-14.5,2.7-21.6,4.4c-9.7,2.3-19.1,2-28.3-2.3c-0.4-0.2-0.8-0.2-1.4-0.4c0,16.4,0,32.6,0,49.2
	c1.6-0.9,3-1.7,4.5-2.4c5.1-2.4,10.4-2.1,15.7-1.2c6.5,1.1,13,2.6,19.5,3.9c-4,6.2-12.8,9.5-21,7.6c-5.1-1.2-10.1-2.6-15.2-3.9
	c-1-0.3-2.1-0.4-3.5-0.7c0,20.6,0,40.9,0,61.6c3.4-0.7,6.7-1.5,10-2.1c9.6-2,19-1.2,28.3,1.6c6.9,2.1,14,3.9,21,5.9
	c-3.9,3.4-8.8,5.2-14.1,5.9c-8.8,1.2-17.2-0.8-25.7-2.3c-8-1.5-15.9-3.1-23.9-4c-7.8-0.9-15.4,0.6-22.8,3.6c0.4-0.5,0.6-1,1.1-1.4
	c3.3-2.9,4.9-6.7,4.9-10.9c0.1-36.2,0.1-72.3-0.1-108.5c0-2-2.1-4.1-3.5-6c-0.7-0.9-1.9-1.4-2.4-1.8c6.3,0.4,13,1.6,19.5,1.1
	c8.4-0.6,16.7-2.4,25-3.7c10.2-1.5,20.2-1.2,29.6,3.6c1.2,0.6,2.3,1.4,3.4,2.1C710-1606.9,710.5-1606.4,710.6-1606.4z"/>
<path d="M366.1-1673.4c-9.3,2.3-18.1,4.5-27,6.5c-2.6,0.6-2.3,2.3-1.1,3.3c1.7,1.4,4,2.6,6.1,2.8c6.1,0.4,11.4-2.2,16.6-5.2
	c1-0.5,1.9-1.2,3.1-2c0,2.7,0,5.2,0,8.3c-7.1,1.8-14.4,4.4-21.8,5.3c-8.7,1-13.4-4.5-12.7-13.3c0.7-9.9,7-17.4,17-20.2
	c2.2-0.6,4.6-1,6.9-1.3c7-0.7,11.2,2.6,12.5,9.5C365.9-1677.5,365.9-1675.3,366.1-1673.4z M358-1676.9c-0.8-4.4-2.5-6.3-6.2-6.2
	c-4.6,0.1-8.8,1.5-11.9,5.1c-1.3,1.5-1.9,3.6-2.9,5.4c0.3,0.2,0.6,0.4,0.8,0.6C344.5-1673.6,351.3-1675.2,358-1676.9z"/>
<path d="M284.1-1683.3c3.5-0.9,6.8-1.7,10.3-2.6c0,4.9,0,9.7,0,14.9c1-0.8,1.6-1.3,2.2-1.8c4.8-4.4,10.6-6.4,17.1-6.4
	c4.6,0,7.4,2.4,7.9,6.9c0.5,4.4,0.2,8.9,0.6,13.3c0.2,2.8,1,5.6,1.5,8.8c-3.3,0.8-7.4,1.8-11.7,2.9c4.1-7.1,2.7-14.4,2.1-21.6
	c-0.3-3-2.5-4.3-5.4-4.2c-8.3,0.2-14.2,6.2-14.3,14.4c0,2.4-0.2,4.9,0.1,7.3c0.3,2.5,1.1,5,1.8,7.9c-3.3,0.8-7.4,1.8-11.8,2.9
	C288-1648.4,287.9-1678,284.1-1683.3z"/>
<path d="M238-1672.4c13.9-3.4,28-6.8,41.9-10.2c0.7,2.8,1.3,5.4,1.8,7.5c-6,0.7-12,1.3-18.4,2c0,2.6,0,4.7,0,6.8
	c0,7.6-0.1,15.1,0.1,22.7c0.1,2.5,1.1,4.9,1.8,7.5c-3.5,0.9-7.9,1.9-11.6,2.8c0.4-3.8,1.1-7.7,1.1-11.5c0.2-8.4,0.1-16.9,0.1-26.2
	c-6.6,2.4-12.5,4.7-18.5,6.9C236.7-1666.3,237.3-1669.1,238-1672.4z"/>
<path d="M986.4-1540.9c-0.2-14.3-4.8-27.2-12.3-39c-3.5-5.5-8-10.2-11.9-15.5c-0.7-0.9-0.5-2.4-0.7-3.7c1.3-0.1,3-0.8,3.8-0.2
	c2.1,1.4,4,3.2,5.5,5.3c9.2,12.4,16.6,25.7,19.5,41.1c1.5,8,0.5,15.9-0.6,23.8c-1.5,10.2-2.6,20.4-3.9,30.7c-0.1,0.9-1,1.7-1.5,2.6
	c-0.8-0.8-2.1-1.6-2.2-2.5c-0.2-2.6,0-5.3,0.3-7.9C983.6-1517.8,985-1529.4,986.4-1540.9z"/>
<path d="M858.9-1593.9c1.4,3.5,0.4,6.9-2.5,9C854.4-1588,855.5-1592.1,858.9-1593.9z"/>
<path d="M892.7-1493.3c-1.4-1.7-2.8-2.8-2.8-3.8c0-0.9,1.8-2.4,2.7-2.3c1.1,0.1,2.5,1.4,2.9,2.6
	C895.7-1496.2,894.1-1494.9,892.7-1493.3z"/>
<path d="M899.1-1488.5c-1.7,1.2-2.8,2.6-3.8,2.4c-0.9-0.1-2.3-1.8-2.3-2.8c0.1-1,1.6-2.6,2.5-2.6
	C896.6-1491.4,897.6-1489.9,899.1-1488.5z"/>
<path d="M907.7-1499.4c-1.9,1.2-3.1,2.4-3.8,2.2c-1.1-0.3-1.8-1.7-2.7-2.6c0.9-0.8,1.8-2.3,2.7-2.3
	C904.8-1502.1,905.8-1500.8,907.7-1499.4z"/>
<path d="M857.4-1577c1.5-1.1,2.7-2.1,3.9-2.8c0.2-0.1,1.6,1.3,1.5,1.4c-1,1.4-2.1,2.8-3.2,4.1C859-1574.9,858.5-1575.6,857.4-1577z"
	/>
<path d="M890.8-1513.7c-1.6,1-2.7,2-2.9,1.9c-1.2-0.9-2.2-2.1-3.3-3.2c0.6-0.6,1.5-1.8,1.8-1.7
	C887.7-1516.1,888.8-1515.1,890.8-1513.7z"/>
<path d="M256.9-1389.1c0-1.8,0-3.6,0-5.5c159,0,317.8,0,476.9,0c0,1.8,0,3.5,0,5.5C575-1389.1,416-1389.1,256.9-1389.1z"/>
<path d="M734-1461.2c0,2,0,3.6,0,5.5c-159,0-317.8,0-476.9,0c0-1.7,0-3.5,0-5.5C416-1461.2,574.8-1461.2,734-1461.2z"/>
<path d="M549.5-1403.7c-4.2,0-8.2,0-12.1-0.1c-0.5,0-1.2-0.7-1.6-1.2c-7.8-10-15.5-20-23.7-29.9c0.4,10.3-1.7,20.7,1.6,31
	c-3.7,0-7.8,0-11.9,0c3-5.6,2.9-32.4-0.1-37.2c5.5,0,10.9,0,15.8,0c7.8,10.2,15.4,20.2,23.2,30.5c1.8-8.6,0.6-27-2-30.5
	c4.2,0,8.2,0,11.5,0c-0.4,3.6-0.9,7.2-1,10.9c-0.2,7.1-0.1,14.2,0,21.3C549.1-1407.3,549.3-1405.8,549.5-1403.7z"/>
<path d="M616-1440.8c-0.9,2.5-1.7,4.8-2.6,7.4c-7-2.8-13.9-3.9-21.1-3.2c-10.3,1-16.2,8-14.7,17.4c0.9,5.6,5.1,9.7,11.7,10.5
	c3.9,0.5,8,0.5,11.9-0.1c7-1,8.7-4,7.6-11.6c-5.6,0-11.2,0-16.7,0c1.1-5.1,1.6-5.6,6.6-5.7c6.5-0.1,13.1,0,19.3,0c0,7,0,13.7,0,20.2
	c-6.6,1-12.7,2-18.9,2.9c-6.4,1-12.7,0.1-18.7-2c-8.6-3-12.6-8.9-12.5-17.6c0.1-8.1,4.9-14.3,13.5-17.4c8.1-2.9,16.4-2.2,24.7-1.7
	C609.3-1441.6,612.4-1441.2,616-1440.8z"/>
<path d="M389.4-1442.1c5.2-0.3,10.6,0.5,15.7,3.2c12.5,6.6,13.4,23.5,1.6,31.3c-7.1,4.7-15.1,5.5-23.4,4.6
	c-5.2-0.5-10.3-1.9-14.5-5.2c-8.9-7-9.2-20.7-0.4-27.9C374.4-1441,381.5-1442.3,389.4-1442.1z M387.8-1408.6c1,0,2,0.1,3,0
	c9.1-0.8,14.6-6.6,14.3-14.7c-0.3-8.4-5.7-13.1-15.1-13.3c-2.3,0-4.7,0.1-6.9,0.6c-9.3,2.1-14.1,10.9-10.4,19.4
	C375.6-1410.1,381.4-1408.6,387.8-1408.6z"/>
<path d="M649.3-1420.7c0,4,0,7.5,0,11.6c12.2-0.7,24.4,1.8,36.6-2.9c-0.9,2.8-1.7,5.2-2.6,8.1c-14.8,0-30,0-45.2,0
	c3-6,2.9-32.4-0.3-37.2c15.1,0,30,0,44.7,0c0.7,2.5,1.4,4.8,2.1,7.4c-11.6-3.8-23.3-1.9-35.1-2.5c0,3.4,0,6.6,0,10
	c8.7,0,17.5,0,26.4,0c-1.6,3.4-3.7,5.8-8.2,5.5C661.7-1421,655.6-1420.7,649.3-1420.7z"/>
<path d="M469.8-1441.2c3.7,0,8.1,0,11.8,0c-0.5,2.9-1.2,5.8-1.4,8.8c-0.2,4.3-0.1,8.7-0.1,13c0,9.1-3.5,13.5-12.3,15.6
	c-7.4,1.7-14.8,1.7-22.1-0.5c-7-2.1-10.2-6.5-10.2-13.8c0-4.8,0.2-9.6-0.1-14.3c-0.2-3-1-5.9-1.5-8.8c3.7,0,8.1,0,13.1,0
	c-3.1,3.3-2.7,7.2-2.7,11c0,3.3,0,6.7,0,10c0,7.5,2.9,10.8,10.3,11.6c2.1,0.2,4.2,0.2,6.3,0c7.3-0.8,10.1-3.9,10.1-11.3
	c0-4.4,0.2-8.9-0.1-13.3C471-1435.9,470.3-1438.5,469.8-1441.2z"/>
<path d="M306.4-1441.2c3.6,0,8,0,11.6,0c-0.4,3.4-1.1,6.9-1.2,10.3c-0.2,7.1-0.1,14.2-0.1,21.7c10.6-0.5,21.1,1.5,31.4-3.1
	c-1,3-1.9,5.5-2.8,8.3c-12.9,0-26.2,0-38.7,0C308.2-1416.4,308.6-1428.8,306.4-1441.2z"/>
<path d="M893.7-1505.6c-1.3,0.5-2.5,1.3-2.9,1c-0.8-0.5-1.4-1.7-1.6-2.7c-0.1-0.6,0.9-1.3,1.4-2
	C891.2-1508.5,891.9-1507.7,893.7-1505.6z"/>
<path d="M886.2-1494.7c-1.2,0.9-2,1.9-2.8,1.9c-0.5,0-1.7-1.3-1.6-1.9c0.2-0.8,1.1-1.8,1.9-2
	C884.2-1496.8,885.1-1495.7,886.2-1494.7z"/>
<path d="M887.1-1502.3c-0.9,0.4-1.8,1.2-2.6,1.1c-0.8-0.1-1.8-1.2-1.9-2c-0.1-0.6,1-2,1.4-2c0.9,0.1,1.6,1,2.4,1.5
	C886.6-1503.2,886.9-1502.8,887.1-1502.3z"/>
<path d="M856.9-1579.9c-0.3,1.8-1.2,3-3.2,2.5c-0.5-0.1-0.8-1.1-1.1-1.7c1.2-0.7,2.4-1.4,3.6-2.1
	C856.4-1580.7,856.6-1580.3,856.9-1579.9z"/>
<text transform="matrix(0.7378 0 0 1 303.3848 -1346.2878)" class="st2" style="font-size:34.4339px;">SCHENECTADY, NY </text>
</svg>
